<?xml version="1.0" standalone="no"?>
<!DOCTYPE svg PUBLIC "-//W3C//DTD SVG 20010904//EN"
 "http://www.w3.org/TR/2001/REC-SVG-20010904/DTD/svg10.dtd">
<svg version="1.0" xmlns="http://www.w3.org/2000/svg"
 width="728.000000pt" height="477.000000pt" viewBox="0 0 728.000000 477.000000"
 preserveAspectRatio="xMidYMid meet">

<g transform="translate(0.000000,477.000000) scale(0.100000,-0.100000)"
fill="#000000" stroke="none">
<path d="M0 3536 l0 -1235 48 -4 47 -3 -47 -2 c-45 -2 -63 -14 -35 -25 10 -4
10 -6 0 -6 -10 -1 -13 -234 -13 -1131 l0 -1130 3640 0 3640 0 0 735 0 736
-271 -1 c-149 -1 -272 0 -274 2 -3 2 -2 13 1 25 4 14 11 19 25 16 16 -5 19 0
19 30 0 20 5 39 10 42 6 4 8 11 5 16 -4 5 4 9 17 9 18 0 20 -2 8 -10 -10 -6
-11 -10 -2 -10 8 0 12 -17 12 -50 l0 -50 108 0 c59 -1 160 -3 225 -5 l117 -5
0 1645 0 1645 -3640 0 -3640 0 0 -1234z m3500 1052 c-1 -50 -3 -59 -11 -45
-10 17 -4 107 7 107 2 0 4 -28 4 -62z m2 -210 c2 -53 0 -91 -4 -85 -6 9 -8 9
-8 0 0 -7 -5 -13 -10 -13 -6 0 -8 10 -5 23 3 12 7 65 9 117 3 52 6 97 7 100 4
10 8 -47 11 -142z m-361 -130 c24 -17 39 -33 32 -35 -19 -7 -154 50 -140 59
25 16 65 7 108 -24z m-141 -11 c0 -2 -10 -12 -21 -23 -22 -19 -22 -19 -8 4 12
19 29 30 29 19z m-148 -71 c10 -10 27 -12 61 -6 35 5 47 4 47 -6 0 -23 -24
-29 -127 -29 -90 0 -102 2 -107 18 -6 23 16 32 43 18 24 -13 34 -14 27 -2 -13
20 37 27 56 7z m453 -36 c14 -22 22 -46 18 -58 -4 -16 0 -21 18 -24 22 -3 22
-4 5 -20 -10 -10 -12 -18 -6 -18 6 0 8 -4 5 -10 -9 -15 -25 -12 -25 5 0 10
-10 15 -30 15 -32 0 -43 26 -16 36 10 4 15 20 14 45 0 46 -17 59 -75 60 -26 0
-32 3 -20 8 10 4 34 5 53 3 28 -3 40 -13 59 -42z m1933 7 c14 4 15 3 2 -6 -8
-5 -11 -13 -8 -16 9 -9 28 3 28 18 0 9 14 11 43 8 37 -3 39 -5 19 -12 -13 -5
-28 -6 -33 -3 -6 3 -9 -10 -7 -30 1 -19 -1 -38 -5 -42 -4 -4 -7 5 -7 19 0 15
-4 27 -8 27 -16 0 -5 -60 15 -83 11 -12 23 -29 27 -37 5 -9 2 -8 -7 3 -8 9
-19 17 -25 17 -5 0 -13 11 -16 25 -6 24 -28 37 -23 13 1 -7 -5 -12 -13 -13 -9
0 -14 -8 -12 -20 2 -16 1 -17 -7 -6 -5 8 -6 24 -2 35 5 12 6 26 4 33 -2 6 1
14 6 17 7 4 7 15 1 30 -5 13 -6 27 -2 31 4 3 8 2 10 -4 2 -5 11 -7 20 -4z
m-2528 -1 c0 -3 -4 -8 -10 -11 -5 -3 -10 -1 -10 4 0 6 5 11 10 11 6 0 10 -2
10 -4z m810 -54 c0 -4 -13 -7 -30 -4 -30 4 -42 22 -15 22 8 0 15 5 15 11 0 6
7 4 15 -5 8 -8 15 -19 15 -24z m1823 13 c0 -6 -7 -11 -16 -13 -12 -3 -15 1
-11 13 7 17 25 17 27 0z m-13 -39 c0 -3 -4 -8 -10 -11 -5 -3 -10 -1 -10 4 0 6
5 11 10 11 6 0 10 -2 10 -4z m-1839 -64 c0 -14 2 -13 8 3 6 15 9 6 12 -33 2
-28 1 -52 -3 -52 -5 0 -8 5 -8 11 0 6 -7 9 -15 5 -11 -4 -15 1 -15 17 0 20
-18 38 -60 60 -15 7 15 5 50 -4 8 -2 14 2 12 9 -1 8 2 11 8 7 5 -3 10 -14 11
-23z m1756 4 c-3 -7 0 -19 6 -26 9 -10 8 -12 -5 -7 -9 3 -19 1 -21 -6 -2 -7
-2 -3 0 8 3 11 5 26 5 33 1 6 6 12 11 12 5 0 7 -6 4 -14z m93 -11 c0 -8 -4
-15 -10 -15 -5 0 -7 7 -4 15 4 8 8 15 10 15 2 0 4 -7 4 -15z m-1940 1 c0 -11
-19 -15 -25 -6 -3 5 1 10 9 10 9 0 16 -2 16 -4z m1810 -16 c0 -5 -5 -10 -11
-10 -5 0 -7 5 -4 10 3 6 8 10 11 10 2 0 4 -4 4 -10z m113 -17 c-7 -2 -19 -2
-25 0 -7 3 -2 5 12 5 14 0 19 -2 13 -5z m-1793 -63 c11 -7 -1 -10 -40 -10 -39
0 -51 3 -40 10 8 5 26 10 40 10 14 0 32 -5 40 -10z m10 -38 c0 -4 -9 -8 -20
-9 -11 -1 -20 2 -20 8 0 5 9 9 20 9 11 0 20 -4 20 -8z m-65 -12 c13 -6 15 -9
5 -9 -8 0 -22 4 -30 9 -18 12 -2 12 25 0z m75 -20 c0 -5 -8 -10 -17 -10 -15 0
-16 2 -3 10 19 12 20 12 20 0z m1728 -14 c-7 -8 -15 -10 -18 -6 -3 4 -12 10
-20 13 -8 3 0 6 18 6 28 1 31 -1 20 -13z m-45 -53 c-7 -2 -19 -2 -25 0 -7 3
-2 5 12 5 14 0 19 -2 13 -5z m-53 -7 c0 -3 -4 -8 -10 -11 -5 -3 -10 -1 -10 4
0 6 5 11 10 11 6 0 10 -2 10 -4z m190 -6 c0 -5 -4 -10 -9 -10 -6 0 -13 5 -16
10 -3 6 1 10 9 10 9 0 16 -4 16 -10z m-50 -27 c0 -5 -5 -15 -10 -23 -8 -12
-10 -11 -10 8 0 12 5 22 10 22 6 0 10 -3 10 -7z m-33 -50 c-3 -10 -5 -4 -5 12
0 17 2 24 5 18 2 -7 2 -21 0 -30z m87 -147 c-10 -8 -9 -13 4 -23 15 -11 15
-12 -5 -13 -22 0 -23 3 -23 83 0 56 3 77 10 67 8 -13 10 -12 11 5 1 11 5 -9 9
-45 5 -47 3 -68 -6 -74z m-54 104 c0 -5 -4 -10 -10 -10 -5 0 -10 5 -10 10 0 6
5 10 10 10 6 0 10 -4 10 -10z m-1795 -10 c4 -6 -11 -10 -37 -10 -31 0 -39 3
-28 10 20 13 57 13 65 0z m1640 -20 c3 -5 1 -10 -4 -10 -6 0 -11 5 -11 10 0 6
2 10 4 10 3 0 8 -4 11 -10z m68 3 c-7 -2 -19 -2 -25 0 -7 3 -2 5 12 5 14 0 19
-2 13 -5z m27 -43 c0 -27 -3 -30 -32 -30 -18 0 -43 -3 -55 -6 -20 -6 -23 -3
-23 24 0 33 10 39 73 41 35 1 37 -1 37 -29z m-15 -49 c-33 -13 -95 -20 -95
-11 0 10 31 17 80 18 27 1 30 -1 15 -7z m-1762 -8 c-7 -2 -19 -2 -25 0 -7 3
-2 5 12 5 14 0 19 -2 13 -5z m77 -3 c0 -5 -2 -10 -4 -10 -3 0 -8 5 -11 10 -3
6 -1 10 4 10 6 0 11 -4 11 -10z m-73 -26 c-3 -3 -12 -4 -19 -1 -8 3 -5 6 6 6
11 1 17 -2 13 -5z m1140 -20 c-3 -3 -12 -4 -19 -1 -8 3 -5 6 6 6 11 1 17 -2
13 -5z m-124 -11 c-7 -2 -21 -2 -30 0 -10 3 -4 5 12 5 17 0 24 -2 18 -5z m687
-2 c0 -5 -7 -11 -15 -15 -15 -5 -20 5 -8 17 9 10 23 9 23 -2z m53 2 c-7 -2
-19 -2 -25 0 -7 3 -2 5 12 5 14 0 19 -2 13 -5z m-896 -9 c-3 -3 -12 -4 -19 -1
-8 3 -5 6 6 6 11 1 17 -2 13 -5z m1038 -4 c3 -5 -1 -10 -9 -10 -9 0 -16 5 -16
10 0 6 4 10 9 10 6 0 13 -4 16 -10z m-25 -30 c0 -5 -7 -7 -15 -4 -8 4 -15 8
-15 10 0 2 7 4 15 4 8 0 15 -4 15 -10z m-837 -7 c-13 -2 -35 -2 -50 0 -16 2
-5 4 22 4 28 0 40 -2 28 -4z m-1043 -38 c0 -5 -5 -3 -10 5 -5 8 -10 20 -10 25
0 6 5 3 10 -5 5 -8 10 -19 10 -25z m945 25 c3 -5 1 -10 -4 -10 -6 0 -11 5 -11
10 0 6 2 10 4 10 3 0 8 -4 11 -10z m772 -6 c-3 -3 -12 -4 -19 -1 -8 3 -5 6 6
6 11 1 17 -2 13 -5z m174 -58 l2 -31 7 35 c5 25 8 10 9 -57 0 -58 -3 -93 -9
-93 -17 0 -32 52 -27 98 2 26 0 42 -7 42 -6 0 -4 5 4 11 11 8 12 12 3 16 -18
7 -16 24 2 17 8 -4 16 -20 16 -38z m-1736 24 c3 -5 2 -10 -4 -10 -5 0 -13 5
-16 10 -3 6 -2 10 4 10 5 0 13 -4 16 -10z m1638 3 c-7 -2 -21 -2 -30 0 -10 3
-4 5 12 5 17 0 24 -2 18 -5z m-1686 -16 c3 -4 -24 -7 -60 -7 -37 0 -67 4 -67
8 0 9 117 8 127 -1z m1629 1 c5 -8 2 -9 -9 -5 -10 3 -17 2 -17 -3 0 -6 24 -11
53 -11 l52 -2 -40 -7 c-38 -7 -37 -7 20 -9 55 -1 58 -3 41 -16 -14 -11 -16
-15 -5 -15 8 0 10 -3 4 -8 -5 -4 -10 -14 -10 -22 0 -9 -10 -15 -22 -16 -13 -1
-23 3 -23 7 0 5 -4 9 -10 9 -5 0 -10 -7 -10 -15 0 -10 11 -15 33 -16 l32 -1
-35 -7 c-20 -4 -41 -11 -48 -15 -7 -4 -12 -3 -12 3 0 7 -8 7 -26 1 -35 -14
-42 -12 -20 5 11 8 30 15 43 15 20 0 22 2 11 14 -11 12 -15 12 -29 0 -8 -8
-21 -14 -27 -14 -18 0 -14 66 5 85 13 13 14 18 3 25 -7 4 -9 13 -6 19 9 15 43
14 52 -1z m-1826 -7 c0 -5 -9 -11 -20 -14 -22 -6 -28 8 -7 16 19 8 27 8 27 -2z
m240 -13 c0 -13 -23 -5 -28 10 -2 7 2 10 12 6 9 -3 16 -11 16 -16z m-42 -23
c26 -6 25 -28 -1 -33 -11 -2 -17 3 -17 14 0 19 -10 14 -14 -8 -6 -41 -52 -53
-74 -18 -15 25 -47 26 -62 3 -10 -17 -10 -17 -8 1 2 10 -3 21 -11 24 -9 3 -11
0 -6 -8 6 -9 3 -9 -15 0 -30 16 -21 21 52 27 35 3 64 7 66 8 4 3 61 -3 90 -10z
m827 -45 c-3 -5 -11 -10 -16 -10 -6 0 -7 5 -4 10 3 6 11 10 16 10 6 0 7 -4 4
-10z m108 -27 c-7 -2 -21 -2 -30 0 -10 3 -4 5 12 5 17 0 24 -2 18 -5z m-85
-20 c-10 -2 -26 -2 -35 0 -10 3 -2 5 17 5 19 0 27 -2 18 -5z m7 -23 c3 -5 1
-10 -4 -10 -6 0 -11 5 -11 10 0 6 2 10 4 10 3 0 8 -4 11 -10z m78 -25 c-3 -8
-15 -15 -27 -14 -20 0 -20 1 2 10 14 5 20 13 16 20 -4 8 -3 9 4 5 6 -4 9 -13
5 -21z m37 5 c0 -5 -4 -10 -10 -10 -5 0 -10 5 -10 10 0 6 5 10 10 10 6 0 10
-4 10 -10z m670 -20 c0 -5 -12 -10 -27 -9 -25 0 -26 1 -8 9 27 12 35 12 35 0z
m-712 -20 c-10 -6 -25 -7 -40 -1 -20 9 -18 10 17 10 31 0 36 -2 23 -9z m67
-21 c-4 -5 -2 -9 3 -9 5 0 12 -9 15 -20 5 -18 4 -18 -19 -3 -27 17 -26 16 -18
37 3 9 10 13 15 10 5 -3 7 -10 4 -15z m-49 -45 c-8 -21 -32 -17 -33 6 -1 12 5
20 15 21 12 0 13 2 3 6 -11 5 -11 7 0 14 15 9 25 -21 15 -47z m709 46 c3 -5 2
-10 -4 -10 -5 0 -13 5 -16 10 -3 6 -2 10 4 10 5 0 13 -4 16 -10z m-755 -17 c0
-10 -4 -14 -8 -8 -4 6 -11 13 -16 18 -5 4 -2 7 7 7 10 0 17 -8 17 -17z m-976
-12 c3 -5 -1 -14 -9 -21 -13 -10 -15 -9 -15 9 0 21 14 28 24 12z m913 3 c-3
-3 -12 -4 -19 -1 -8 3 -5 6 6 6 11 1 17 -2 13 -5z m28 -24 c-3 -5 -11 -10 -16
-10 -6 0 -7 5 -4 10 3 6 11 10 16 10 6 0 7 -4 4 -10z m815 -42 c0 -4 14 -8 30
-8 17 0 30 -5 30 -11 0 -5 5 -7 10 -4 6 3 10 0 11 -7 0 -7 2 -23 3 -35 3 -27
-12 -33 -76 -29 -27 1 -48 -1 -48 -6 0 -4 -11 -8 -25 -8 -23 0 -25 4 -23 35 1
24 7 35 18 36 10 0 9 3 -5 9 -18 7 -18 8 8 15 33 9 36 25 5 26 -22 0 -22 1 -3
8 21 8 65 -6 65 -21z m27 26 c-3 -3 -12 -4 -19 -1 -8 3 -5 6 6 6 11 1 17 -2
13 -5z m-1746 -67 c-8 -8 -11 -3 -11 19 1 25 2 27 11 11 8 -14 8 -22 0 -30z
m1579 3 c-11 -7 -12 -12 -4 -17 9 -6 8 -12 -2 -21 -12 -11 -14 -9 -14 11 0 26
7 37 24 37 6 0 4 -5 -4 -10z m260 -40 c0 -16 -2 -30 -4 -30 -2 0 -6 14 -8 30
-3 17 -1 30 4 30 4 0 8 -13 8 -30z m-783 4 c-3 -3 -12 -4 -19 -1 -8 3 -5 6 6
6 11 1 17 -2 13 -5z m-1087 -18 c0 -8 -7 -16 -15 -20 -10 -4 -15 1 -15 14 0
11 7 20 15 20 8 0 15 -6 15 -14z m914 -8 c9 -12 16 -17 16 -10 0 20 54 14 70
-8 17 -23 30 -26 30 -6 0 8 -8 17 -17 19 -11 3 -7 5 10 6 36 1 104 -33 104
-53 0 -8 -10 -17 -23 -20 -12 -3 -29 -9 -38 -12 -11 -4 -16 -2 -14 7 2 9 -8
15 -26 17 -18 2 -26 0 -21 -7 3 -6 0 -11 -9 -11 -8 0 -16 3 -19 8 -2 4 -2 1
-1 -5 2 -7 -3 -13 -11 -13 -9 0 -12 6 -9 15 4 8 1 15 -5 15 -6 0 -11 -4 -11
-10 0 -5 -13 -10 -30 -10 -16 0 -30 -4 -30 -10 0 -6 40 -10 98 -11 53 -1 111
-5 127 -8 17 -4 -22 -8 -91 -8 -67 0 -126 -3 -131 -6 -14 -9 -41 11 -26 21 9
6 15 33 22 115 2 14 20 7 35 -15z m-882 -75 c8 -10 6 -13 -6 -13 -12 0 -16 9
-15 43 2 34 3 36 6 12 3 -16 9 -36 15 -42z m1568 40 c19 -4 38 -6 43 -5 4 1 7
-2 7 -8 0 -6 -43 -10 -108 -9 -122 0 -162 -6 -162 -28 0 -8 -4 -11 -10 -8 -5
3 -8 16 -6 28 2 17 12 23 40 28 20 3 38 8 41 11 6 6 105 0 155 -9z m173 -50
c-3 -7 -10 -10 -15 -7 -7 4 -8 -5 -3 -26 6 -28 5 -31 -6 -20 -17 16 -21 89 -6
106 10 10 14 7 23 -14 7 -14 10 -32 7 -39z m-1773 1 c0 -2 -7 -4 -15 -4 -8 0
-15 4 -15 10 0 5 7 7 15 4 8 -4 15 -8 15 -10z m1620 -14 c33 -7 19 -8 -58 -5
-60 3 -121 0 -148 -6 -52 -13 -72 -5 -23 10 43 12 170 12 229 1z m166 -45 c-3
-13 -1 -27 5 -30 5 -4 9 -17 8 -28 -3 -32 10 -57 27 -50 8 3 11 10 7 17 -4 6
1 5 10 -3 13 -10 17 -26 15 -58 -3 -36 -6 -43 -22 -41 -15 2 -19 -4 -20 -24
-1 -16 2 -28 7 -28 4 0 5 -4 2 -10 -4 -6 5 -10 19 -10 14 0 26 -5 26 -11 0 -7
-10 -9 -25 -7 -14 3 -25 1 -25 -3 0 -5 5 -9 11 -9 6 0 9 -7 5 -15 -8 -22 3
-45 23 -46 12 0 12 -2 -4 -8 -38 -15 -53 -3 -50 40 4 43 6 41 -72 39 -32 -1
-53 3 -53 9 0 7 26 12 63 13 61 1 62 1 17 8 l-45 7 38 1 c36 2 38 4 35 29 -3
26 -5 27 -52 24 -33 -2 -46 1 -42 8 4 6 25 11 46 11 33 0 38 3 33 17 -4 11 -8
12 -11 5 -2 -7 -19 -12 -37 -12 -25 0 -35 5 -40 20 -6 18 -16 20 -93 22 -110
2 -146 1 -202 -7 -39 -5 -43 -5 -25 7 14 9 64 13 174 13 114 0 155 3 159 13 2
6 8 12 13 12 6 0 7 -5 3 -12 -5 -8 -2 -9 9 -5 10 3 17 2 17 -3 0 -6 5 -10 11
-10 6 0 9 14 7 32 -2 25 -9 34 -28 39 -25 6 -24 6 5 10 26 3 30 9 33 37 2 19
8 30 13 26 6 -3 8 -17 5 -29z m-1776 6 c0 -4 -5 -12 -12 -19 -7 -7 -15 -12
-19 -12 -8 0 -19 37 -12 43 6 7 43 -4 43 -12z m26 -45 l2 -55 -39 1 c-37 0
-39 2 -39 31 0 28 1 29 13 12 16 -21 37 -13 37 15 0 23 10 50 19 50 3 0 7 -25
7 -54z m915 34 c10 0 19 4 19 8 0 5 18 9 40 10 22 1 40 -3 40 -8 0 -6 15 -10
34 -10 19 0 37 -3 39 -7 3 -5 -51 -6 -119 -4 -86 2 -124 0 -124 -8 0 -6 -7
-11 -15 -11 -8 0 -15 7 -15 15 0 9 6 12 15 9 8 -4 15 -1 15 4 0 12 43 21 48
10 2 -5 12 -8 23 -8z m694 10 c33 -4 51 -8 40 -9 -17 -1 -18 -3 -5 -11 8 -5
10 -10 5 -10 -6 0 -15 4 -20 9 -6 5 -52 12 -102 16 -74 5 -93 4 -93 -7 0 -10
-2 -10 -8 -1 -5 9 -19 9 -47 3 -52 -12 -61 -12 -49 -1 20 20 166 25 279 11z
m95 -20 c0 -5 -4 -10 -10 -10 -5 0 -10 5 -10 10 0 6 5 10 10 10 6 0 10 -4 10
-10z m-612 -29 c10 -3 -1 -41 -13 -41 -8 0 -15 6 -15 13 0 8 -4 7 -10 -3 -6
-10 -13 -11 -17 -5 -13 17 -184 19 -195 3 -7 -9 -8 -8 -6 7 3 17 12 20 58 23
30 1 60 5 65 7 8 3 119 -1 133 -4z m536 1 c3 -5 -52 -8 -122 -8 -70 1 -139 -2
-154 -7 -17 -4 -28 -3 -28 2 0 5 10 12 23 14 41 8 276 7 281 -1z m-1512 -41
c-3 -25 -8 -29 -31 -26 -14 1 -34 3 -43 4 -12 1 -18 9 -18 26 0 23 3 25 48 25
48 0 48 0 44 -29z m1476 9 c23 0 42 -3 42 -7 0 -5 -70 -8 -155 -8 -84 0 -151
3 -147 7 11 11 72 16 147 12 39 -2 89 -4 113 -4z m-2480 -76 c0 -36 3 -68 6
-71 3 -4 6 12 6 35 0 23 5 42 10 42 6 0 10 -7 10 -15 0 -17 16 -20 25 -5 16
26 25 3 25 -66 l0 -76 -45 6 c-29 5 -45 4 -45 -3 0 -6 5 -11 11 -11 5 0 7 -4
4 -10 -3 -5 -24 -10 -46 -10 -26 0 -38 -4 -36 -12 1 -9 -13 -14 -41 -16 -31
-2 -42 0 -40 10 2 7 -3 12 -9 11 -8 -2 -13 8 -14 25 0 15 -1 71 -2 125 l-2 99
40 -7 c22 -4 46 -7 53 -8 6 0 12 -7 12 -14 0 -8 4 -12 9 -8 15 8 31 -29 32
-72 0 -21 4 -47 9 -58 7 -14 9 -1 9 45 -1 109 1 130 10 130 4 0 9 -30 9 -66z
m462 54 c0 -4 -7 -8 -15 -8 -8 0 -15 4 -15 8 0 5 7 9 15 9 8 0 15 -4 15 -9z
m-378 -13 c0 -5 -5 -11 -11 -13 -6 -2 -11 4 -11 13 0 9 5 15 11 13 6 -2 11 -8
11 -13z m1867 9 c61 -13 29 -20 -93 -20 -68 -1 -128 -4 -135 -8 -13 -8 -31 1
-31 15 0 5 5 9 11 9 5 0 7 -4 4 -10 -3 -5 -2 -10 3 -10 6 0 12 7 16 15 4 12
25 15 99 15 52 0 109 -3 126 -6z m-1627 -26 c-7 -7 -12 -8 -12 -2 0 6 3 14 7
17 3 4 9 5 12 2 2 -3 -1 -11 -7 -17z m551 15 c-7 -2 -19 -2 -25 0 -7 3 -2 5
12 5 14 0 19 -2 13 -5z m-2646 -35 c-3 -8 -6 -5 -6 6 -1 11 2 17 5 13 3 -3 4
-12 1 -19z m2263 5 c42 -24 66 -83 34 -83 -10 0 -14 6 -10 15 4 11 -1 15 -19
15 -14 0 -25 -6 -25 -13 0 -10 -18 -14 -62 -14 -72 -1 -91 6 -78 27 8 12 10
12 16 -3 9 -23 23 -22 17 3 -7 25 41 70 74 70 14 0 38 -7 53 -17z m402 -16 c2
-12 1 -40 -2 -62 -5 -38 -7 -40 -43 -43 -47 -4 -39 -22 10 -22 32 0 35 -2 31
-25 -3 -13 -1 -22 3 -19 5 3 9 19 9 35 0 18 4 28 10 24 6 -3 10 -28 10 -56 0
-40 3 -49 18 -49 11 0 13 3 6 8 -9 5 -8 11 2 20 12 11 14 9 14 -7 0 -11 8 -22
18 -24 9 -3 0 -5 -20 -6 -35 -1 -38 -3 -38 -31 0 -28 3 -30 35 -30 27 0 35 -4
35 -17 0 -15 -2 -16 -10 -3 -9 13 -11 13 -20 0 -9 -13 -11 -13 -20 0 -5 8 -10
11 -10 5 -1 -26 -30 33 -31 64 -1 21 -3 27 -6 15 -3 -18 -11 -22 -43 -22 -38
-1 -39 1 -43 36 -3 32 -4 30 -4 -9 1 -50 -7 -69 -29 -69 -12 0 -14 21 -12 133
3 109 6 132 18 132 10 0 17 -14 21 -40 5 -35 6 -33 7 22 2 65 7 72 53 65 18
-3 28 -11 31 -25z m107 7 c2 -2 -18 -4 -45 -3 -36 0 -44 3 -29 9 18 7 63 3 74
-6z m916 6 c27 -7 25 -8 -18 -9 -29 -1 -46 -5 -42 -11 3 -5 1 -10 -4 -10 -6 0
-11 5 -11 10 0 6 -25 10 -55 10 -30 0 -55 -4 -55 -8 0 -5 -7 -9 -15 -9 -28 0
-15 16 18 21 85 15 142 16 182 6z m614 -16 c3 -4 -49 -4 -116 -1 -95 3 -123 2
-123 -8 0 -9 27 -13 100 -14 55 -1 110 -6 123 -12 15 -6 -14 -8 -93 -4 -69 4
-135 2 -164 -5 -48 -10 -77 -6 -40 6 10 3 26 8 34 12 8 3 18 4 23 4 4 -1 7 3
7 9 0 7 -14 8 -42 4 -49 -8 -46 3 4 16 35 9 278 3 287 -7z m-3640 -36 c1 -5
-3 -8 -9 -8 -5 0 -10 12 -9 28 0 24 1 25 9 7 5 -11 9 -23 9 -27z m-665 17 c3
-8 1 -15 -4 -15 -6 0 -10 7 -10 15 0 8 2 15 4 15 2 0 6 -7 10 -15z m5299 -4
c10 -1 17 -9 17 -21 0 -16 7 -20 36 -20 24 0 34 -4 31 -12 -2 -8 -19 -12 -38
-11 -19 0 -26 -1 -16 -4 10 -3 16 -10 14 -16 -2 -7 2 -18 9 -25 12 -11 14 -9
14 8 0 12 5 18 10 15 12 -7 14 -55 3 -55 -5 0 -15 4 -23 10 -9 6 -17 5 -22 -3
-5 -7 -8 -2 -8 13 l-1 25 -14 -25 c-8 -14 -14 -20 -15 -14 0 6 -11 12 -25 12
-14 0 -25 -6 -25 -12 0 -7 -3 -7 -8 1 -7 12 -36 12 -47 1 -3 -3 -17 -3 -30 0
-19 3 -25 10 -24 31 0 23 1 24 9 6 8 -19 9 -19 9 3 1 13 -5 22 -14 22 -11 0
-15 -11 -15 -37 0 -29 -3 -34 -12 -25 -13 13 -32 17 -24 4 2 -4 -7 -12 -20
-19 -21 -10 -24 -9 -25 10 0 22 0 22 -9 0 -13 -33 -20 -28 -20 12 0 32 2 34
23 26 21 -8 22 -6 22 38 0 45 1 46 33 49 24 2 32 -1 32 -12 0 -9 4 -16 10 -16
5 0 6 7 3 17 -4 11 -3 14 5 9 7 -4 12 -3 12 3 0 10 66 19 105 15 11 -1 28 -3
38 -3z m-4543 -12 c0 -9 -32 -17 -48 -12 -6 3 -10 9 -7 14 7 10 55 8 55 -2z
m1998 4 c-10 -2 -28 -2 -40 0 -13 2 -5 4 17 4 22 1 32 -1 23 -4z m707 -3 c3
-5 1 -10 -4 -10 -6 0 -11 5 -11 10 0 6 2 10 4 10 3 0 8 -4 11 -10z m250 1 c3
-6 -40 -11 -105 -13 -104 -3 -119 -1 -103 15 10 11 201 8 208 -2z m1024 -28
c1 21 8 22 27 2 9 -8 12 -20 8 -26 -4 -8 -3 -9 5 -5 7 5 17 -5 26 -26 8 -18
14 -28 15 -22 0 6 18 16 39 22 32 8 41 7 45 -5 4 -8 4 -19 1 -23 -5 -9 -64
-25 -77 -22 -5 1 -8 -8 -8 -20 -1 -20 -2 -21 -11 -6 -5 9 -15 15 -22 12 -7 -2
-21 2 -32 10 -17 12 -18 17 -6 28 9 8 11 8 7 1 -4 -7 2 -17 14 -23 26 -14 26
1 0 25 -11 10 -22 26 -25 36 -5 16 -9 16 -40 3 -45 -19 -45 -19 -45 16 0 24 6
32 33 43 31 13 32 13 38 -12 4 -15 7 -19 8 -8z m646 26 c4 -6 4 -13 0 -17 -4
-4 -10 -1 -12 6 -3 6 -9 12 -14 12 -6 0 -7 -6 -3 -12 5 -9 2 -9 -9 1 -9 7 -17
15 -17 17 0 9 49 3 55 -7z m545 -28 c0 -41 -41 -56 -60 -22 -15 29 -2 51 31
51 25 0 29 -4 29 -29z m78 -10 c0 -22 -3 -28 -14 -24 -14 5 -20 44 -8 56 12
12 21 -2 22 -32z m-5343 8 c-22 -4 -42 -5 -44 -4 -6 7 64 22 74 16 6 -3 -8 -9
-30 -12z m1615 11 c0 -5 -5 -10 -11 -10 -5 0 -7 5 -4 10 3 6 8 10 11 10 2 0 4
-4 4 -10z m473 3 c-13 -2 -33 -2 -45 0 -13 2 -3 4 22 4 25 0 35 -2 23 -4z
m907 -25 c38 -3 21 -5 -53 -8 -59 -3 -107 -2 -107 3 0 4 20 7 45 7 29 0 45 4
45 13 0 9 2 9 8 0 4 -6 32 -13 62 -15z m623 12 c15 0 27 -4 27 -9 0 -5 -48 -7
-112 -4 -62 3 -137 1 -165 -5 -29 -5 -53 -6 -53 -2 0 13 103 25 190 23 47 -1
97 -3 113 -3z m-2289 -15 c3 -8 1 -15 -4 -15 -6 0 -10 7 -10 15 0 8 2 15 4 15
2 0 6 -7 10 -15z m111 5 c3 -4 39 -6 80 -4 67 4 75 3 76 -13 0 -15 2 -15 7 -3
4 9 14 15 22 14 8 0 22 -2 32 -2 11 -2 14 -8 11 -22 -7 -25 -43 -27 -44 -2 -1
15 -2 16 -6 0 -2 -10 -10 -15 -19 -11 -15 6 -17 2 -8 -20 4 -11 13 -13 32 -8
32 9 114 -8 125 -26 4 -7 14 -13 22 -13 12 0 14 -19 13 -97 -1 -54 -4 -106 -6
-115 -6 -26 -22 -22 -23 5 -1 16 -2 18 -6 5 -2 -10 -14 -18 -26 -19 l-22 0 23
-11 c29 -15 28 -28 -3 -28 -24 0 -25 3 -25 60 l0 60 -79 0 c-92 0 -111 -5
-111 -31 0 -15 6 -18 33 -13 29 4 29 3 9 -6 -13 -5 -35 -8 -48 -6 -16 3 -24 0
-24 -10 0 -8 -1 -14 -2 -14 -62 -5 -144 -13 -147 -16 -2 -2 30 -4 72 -4 62 0
78 3 87 18 9 14 10 12 8 -13 -2 -18 -8 -29 -15 -28 -7 2 -13 -4 -13 -13 0 -10
6 -14 15 -10 9 3 15 0 15 -8 0 -15 -21 -26 -51 -26 -15 0 -18 -5 -15 -25 4
-24 2 -25 -47 -27 l-52 -2 54 -3 c50 -4 53 -5 48 -29 -3 -20 0 -24 22 -25 l26
-2 -28 -4 c-15 -2 -25 -8 -22 -13 3 -4 -10 -8 -28 -9 -42 -1 -65 -5 -74 -15
-4 -5 18 -6 50 -4 31 2 57 1 57 -4 0 -4 -26 -9 -57 -10 l-58 -1 55 -6 c51 -6
55 -8 58 -33 3 -28 2 -28 -55 -30 l-58 -1 60 -6 c56 -6 60 -8 63 -33 3 -27 1
-28 -40 -29 -33 -2 -36 -3 -13 -6 17 -2 75 -13 130 -23 76 -14 101 -16 107 -7
4 7 8 9 9 5 1 -5 2 -11 3 -15 5 -24 53 -82 64 -78 7 3 10 0 7 -5 -3 -6 4 -24
15 -41 26 -36 18 -52 -9 -18 -42 54 -63 74 -57 57 7 -25 -1 -22 -15 3 -8 15
-8 19 0 15 20 -13 12 10 -11 31 -16 14 -53 25 -118 36 -186 31 -273 38 -503
37 -298 0 -481 -16 -697 -61 -62 -12 -97 -16 -104 -9 -6 6 -7 10 -4 10 4 0 53
9 110 19 134 26 336 51 404 51 43 0 52 3 48 15 -4 8 -1 15 5 15 6 0 11 -6 11
-12 0 -10 60 -13 264 -13 l264 0 0 116 c-1 64 2 121 6 127 4 7 3 12 -1 12 -5
0 -8 28 -7 63 3 91 0 97 -51 97 -24 0 -46 3 -48 8 -2 4 1 34 7 67 11 57 12 58
19 28 5 -25 12 -33 29 -34 13 0 33 -2 46 -3 16 -2 22 3 22 16 0 11 -4 16 -10
13 -5 -3 -10 -1 -10 4 0 6 5 11 10 11 6 0 10 23 10 50 0 43 3 50 20 50 13 0
18 5 14 15 -5 12 3 15 36 15 23 0 48 6 56 15 9 8 11 15 5 15 -6 0 -11 7 -11
15 0 13 -25 21 -52 16 -5 0 -8 5 -8 12 0 14 37 20 45 7z m3649 4 c24 -9 19
-19 -9 -22 -16 -1 -25 3 -25 13 0 16 9 19 34 9z m-4874 -76 c0 -39 -2 -69 -5
-66 -7 7 -14 121 -8 131 10 17 13 3 13 -65z m1170 62 c0 -5 -4 -10 -10 -10 -5
0 -10 5 -10 10 0 6 5 10 10 10 6 0 10 -4 10 -10z m720 -4 c0 -2 -9 -6 -20 -9
-11 -3 -20 -1 -20 4 0 5 9 9 20 9 11 0 20 -2 20 -4z m-2122 -23 c-10 -2 -26
-2 -35 0 -10 3 -2 5 17 5 19 0 27 -2 18 -5z m1339 -15 c-3 -8 -6 -5 -6 6 -1
11 2 17 5 13 3 -3 4 -12 1 -19z m3788 12 c3 -6 -1 -7 -9 -4 -18 7 -21 14 -7
14 6 0 13 -4 16 -10z m-3730 -10 c4 -6 -6 -10 -22 -9 -25 0 -26 1 -8 9 11 5
21 9 22 9 1 1 5 -3 8 -9z m59 2 c3 -5 -1 -9 -9 -9 -8 0 -15 4 -15 9 0 4 4 8 9
8 6 0 12 -4 15 -8z m631 -2 c-3 -5 -1 -10 5 -10 6 0 8 -4 5 -10 -3 -5 1 -10 9
-10 9 0 16 -4 16 -8 0 -5 -14 -6 -31 -4 -23 3 -28 7 -18 14 12 8 12 10 0 15
-11 5 -11 7 0 14 18 11 22 11 14 -1z m762 4 c-3 -3 -12 -4 -19 -1 -8 3 -5 6 6
6 11 1 17 -2 13 -5z m213 -15 c0 -6 -7 -9 -15 -5 -8 3 -15 1 -15 -3 0 -5 -42
-8 -94 -8 -74 2 -92 5 -84 15 14 16 208 17 208 1z m658 -1 c31 1 52 -3 52 -9
0 -8 -34 -9 -107 -5 -163 10 -243 10 -298 1 -27 -4 -47 -5 -44 -1 16 17 105
24 219 19 69 -4 149 -6 178 -5z m-2374 -23 c-4 -8 -11 -15 -16 -15 -6 0 -5 6
2 15 7 8 14 15 16 15 2 0 1 -7 -2 -15z m2506 5 c0 -5 -4 -10 -10 -10 -5 0 -10
5 -10 10 0 6 5 10 10 10 6 0 10 -4 10 -10z m164 -17 c-9 -35 -10 -37 -26 -27
-20 13 -48 15 -48 4 0 -15 -17 -12 -24 5 -11 29 4 41 54 43 50 2 50 2 44 -25z
m336 17 c-8 -5 -31 -9 -50 -8 l-35 1 40 7 c59 11 61 11 45 0z m-4455 -30 c-15
-16 -33 -27 -38 -23 -6 3 -7 2 -4 -4 4 -5 -7 -23 -23 -38 l-30 -29 0 28 c0 30
21 56 65 79 49 26 62 20 30 -13z m1012 8 c-3 -8 -6 -5 -6 6 -1 11 2 17 5 13 3
-3 4 -12 1 -19z m20 0 c-3 -8 -6 -5 -6 6 -1 11 2 17 5 13 3 -3 4 -12 1 -19z
m-1677 -8 c0 -8 -24 -20 -41 -20 -5 0 -9 8 -9 19 0 14 6 17 25 13 14 -2 25 -8
25 -12z m745 10 c-23 -10 -9 -13 45 -10 37 2 35 -11 -2 -17 -12 -2 -25 -7 -28
-12 -3 -5 -16 -11 -30 -14 -22 -4 -21 -4 7 -6 26 -1 30 -4 26 -21 -4 -15 -13
-20 -37 -19 -30 2 -30 2 -3 6 15 2 27 9 27 14 0 5 -11 7 -25 3 -17 -4 -25 -2
-25 7 -1 10 -4 9 -10 -3 -6 -9 -8 -27 -6 -40 3 -20 9 -23 40 -21 48 3 47 -15
-1 -19 -39 -3 -49 -20 -30 -45 6 -9 5 -13 -2 -13 -15 0 -11 -51 4 -63 7 -6 6
-10 -2 -13 -8 -4 -10 -16 -6 -35 5 -28 5 -29 -37 -29 -42 0 -42 0 -36 31 5 25
3 30 -9 25 -23 -8 -20 53 4 73 16 14 17 19 5 35 -9 13 -21 17 -39 14 -14 -3
-25 -1 -25 3 0 5 14 9 30 9 25 0 30 4 30 25 0 19 -5 25 -22 26 -22 1 -22 1 2
8 14 4 24 14 22 21 -4 19 60 83 69 69 4 -7 14 -9 24 -6 9 4 13 11 10 17 -4 6
5 10 22 9 25 0 26 -1 8 -9z m4262 4 c-3 -3 -12 -4 -19 -1 -8 3 -5 6 6 6 11 1
17 -2 13 -5z m1413 -10 c0 -8 -4 -12 -10 -9 -5 3 -10 10 -10 16 0 5 5 9 10 9
6 0 10 -7 10 -16z m60 0 c0 -8 -4 -12 -10 -9 -5 3 -10 10 -10 16 0 5 5 9 10 9
6 0 10 -7 10 -16z m-5077 -1 c-7 -2 -19 -2 -25 0 -7 3 -2 5 12 5 14 0 19 -2
13 -5z m2397 -3 c0 -5 -3 -10 -7 -10 -152 -6 -200 -4 -191 8 13 15 198 17 198
2z m591 -1 c29 -5 -2 -7 -91 -6 -74 1 -157 -2 -185 -7 -49 -8 -57 5 -10 17 30
8 235 5 286 -4z m126 5 c-3 -3 -12 -4 -19 -1 -8 3 -5 6 6 6 11 1 17 -2 13 -5z
m855 -9 c15 -19 8 -23 -24 -14 -28 7 -76 7 -145 0 -7 0 -21 -9 -32 -20 -12
-12 -23 -16 -32 -10 -11 7 -10 9 4 9 9 0 17 5 17 11 0 5 -4 7 -10 4 -5 -3 -10
-2 -10 3 0 6 42 14 93 19 116 10 130 10 139 -2z m-3954 -15 c48 -11 52 -14 52
-41 0 -25 -4 -29 -27 -28 l-28 1 25 7 25 7 -25 8 -25 8 25 8 c15 5 18 8 8 9
-9 1 -23 4 -31 7 -12 4 -14 -3 -12 -31 l2 -36 -67 7 -67 6 2 -36 1 -36 -45 0
c-25 0 -63 -3 -83 -6 -24 -4 -38 -3 -38 4 0 6 17 13 38 15 l37 4 -40 1 -40 2
0 63 c0 34 5 65 10 69 15 11 242 2 303 -12z m4050 13 c-10 -2 -28 -2 -40 0
-13 2 -5 4 17 4 22 1 32 -1 23 -4z m-3378 -13 c0 -5 -5 -10 -11 -10 -5 0 -7 5
-4 10 3 6 8 10 11 10 2 0 4 -4 4 -10z m3026 1 c-5 -8 -56 -3 -56 5 0 2 14 4
31 4 16 0 28 -4 25 -9z m-1323 -18 c5 -3 4 -10 -2 -16 -14 -14 -91 -21 -91 -8
0 6 -7 11 -15 11 -8 0 -15 -7 -15 -15 0 -12 13 -15 60 -15 44 0 60 -4 60 -14
0 -11 -19 -13 -90 -11 -85 3 -91 2 -109 -21 -26 -33 -41 -30 -41 9 0 22 3 28
9 18 5 -8 7 -21 4 -30 -3 -9 8 -1 24 17 16 18 38 32 51 32 13 0 22 6 22 15 0
8 -4 15 -10 15 -5 0 -10 -5 -10 -11 0 -6 -7 -8 -17 -5 -9 4 -20 1 -25 -6 -6
-10 -8 -9 -8 4 0 22 10 28 59 30 23 1 41 5 41 10 0 9 86 1 103 -9z m527 -2
c50 1 93 5 96 10 3 5 11 9 17 9 8 0 7 -3 -2 -9 -7 -5 -11 -13 -7 -19 3 -6 -17
-13 -50 -17 -31 -4 -53 -10 -49 -13 4 -4 10 -7 13 -8 4 0 15 -4 25 -9 10 -4
31 -5 47 -1 17 3 30 2 30 -3 0 -5 -71 -8 -157 -7 -87 0 -170 -2 -185 -7 -16
-4 -28 -3 -28 2 0 9 58 19 140 23 41 2 59 11 60 30 0 7 -97 3 -157 -7 -30 -5
-43 -4 -43 4 0 6 12 11 28 12 15 0 43 6 62 13 21 7 42 9 52 4 10 -5 58 -8 108
-7z m176 11 c-3 -4 8 -7 24 -6 16 1 29 -1 28 -5 -3 -24 4 -33 12 -13 6 14 17
22 32 21 22 -1 22 -1 -2 -9 -24 -8 -24 -8 -2 -9 18 -1 22 -7 22 -32 0 -20 -4
-28 -12 -23 -8 5 -9 0 -6 -14 4 -16 2 -22 -9 -22 -10 0 -13 -6 -9 -16 3 -9 6
-22 6 -30 0 -8 6 -11 15 -8 11 5 15 -1 15 -21 0 -14 -4 -24 -9 -21 -4 3 -6 -6
-3 -19 2 -14 7 -23 11 -21 4 3 7 -34 8 -82 2 -85 1 -86 -12 -47 -7 22 -14 32
-14 23 -1 -10 -8 -18 -16 -18 -9 0 -12 6 -9 15 4 8 2 15 -4 15 -6 0 -12 -5
-14 -11 -2 -7 -18 -13 -36 -15 -26 -3 -32 0 -32 16 0 12 -7 20 -17 20 -16 1
-16 2 1 12 11 6 38 10 60 10 23 -1 43 3 48 10 5 10 8 8 8 -4 0 -11 -10 -18
-27 -21 -25 -4 -25 -4 5 -6 l34 -1 -7 53 c-3 28 -11 78 -17 110 l-11 57 -56 1
c-31 1 -48 3 -38 6 9 2 17 8 17 13 0 4 -8 6 -18 3 -16 -4 -18 0 -14 29 3 18
12 39 21 46 9 8 10 10 2 6 -9 -5 -12 -3 -7 4 4 7 14 12 22 12 8 0 13 -4 10 -8z
m777 -12 c-9 -11 -19 -17 -21 -15 -6 6 18 35 29 35 5 0 1 -9 -8 -20z m200 13
c-7 -2 -19 -2 -25 0 -7 3 -2 5 12 5 14 0 19 -2 13 -5z m-256 -25 c-3 -8 -6 -5
-6 6 -1 11 2 17 5 13 3 -3 4 -12 1 -19z m-5207 8 c0 -2 -7 -6 -15 -10 -8 -3
-15 -1 -15 4 0 6 7 10 15 10 8 0 15 -2 15 -4z m1900 -16 c0 -11 -2 -20 -4 -20
-2 0 -6 9 -9 20 -3 11 -1 20 4 20 5 0 9 -9 9 -20z m3547 14 c-3 -3 -12 -4 -19
-1 -8 3 -5 6 6 6 11 1 17 -2 13 -5z m-3674 -11 c-7 -2 -21 -2 -30 0 -10 3 -4
5 12 5 17 0 24 -2 18 -5z m67 -8 c0 -1 -9 -5 -20 -8 -12 -3 -20 0 -20 8 0 8 8
11 20 8 11 -3 20 -7 20 -8z m240 -1 c0 -8 -5 -12 -10 -9 -6 4 -8 11 -5 16 9
14 15 11 15 -7z m-582 -26 c6 -17 11 -33 9 -34 -6 -5 -67 9 -67 16 0 5 11 7
25 4 14 -2 25 0 25 6 0 5 -4 10 -10 10 -5 0 -10 7 -10 15 0 26 15 16 28 -17z
m3969 26 c-3 -3 -12 -4 -19 -1 -8 3 -5 6 6 6 11 1 17 -2 13 -5z m338 -4 c-28
-12 -37 -12 -30 0 3 6 16 10 28 9 21 0 21 -1 2 -9z m-4018 -6 c-3 -3 -12 -4
-19 -1 -8 3 -5 6 6 6 11 1 17 -2 13 -5z m3358 -4 c3 -5 -1 -10 -10 -10 -9 0
-13 5 -10 10 3 6 8 10 10 10 2 0 7 -4 10 -10z m-4085 -20 c0 -5 -23 -10 -51
-10 -31 0 -48 4 -44 10 3 6 26 10 51 10 24 0 44 -4 44 -10z m-195 -10 c-3 -5
-12 -7 -20 -3 -21 7 -19 13 6 13 11 0 18 -4 14 -10z m950 0 c3 -6 -4 -10 -17
-10 -18 0 -20 2 -8 10 19 12 18 12 25 0z m939 1 c7 -11 -18 -21 -55 -21 -29 0
-39 14 -16 23 21 9 66 7 71 -2z m1959 2 c-7 -2 -19 -2 -25 0 -7 3 -2 5 12 5
14 0 19 -2 13 -5z m434 1 c-3 -3 -12 -4 -19 -1 -8 3 -5 6 6 6 11 1 17 -2 13
-5z m-5800 -10 c-3 -3 -12 -4 -19 -1 -8 3 -5 6 6 6 11 1 17 -2 13 -5z m1213
-9 c0 -8 -4 -15 -8 -15 -5 0 -9 7 -9 15 0 8 4 15 9 15 4 0 8 -7 8 -15z m1087
-17 c-3 -7 -5 -2 -5 12 0 14 2 19 5 13 2 -7 2 -19 0 -25z m116 25 c-7 -2 -19
-2 -25 0 -7 3 -2 5 12 5 14 0 19 -2 13 -5z m3990 -5 c11 -9 16 -20 12 -30 -5
-14 -10 -15 -20 -5 -7 7 -11 15 -8 20 2 4 -8 7 -24 7 -22 0 -25 -2 -13 -10 11
-7 7 -10 -17 -10 -30 0 -44 16 -28 31 11 11 82 8 98 -3z m-5783 -2 c0 -2 -7
-6 -15 -10 -8 -3 -15 -1 -15 4 0 6 7 10 15 10 8 0 15 -2 15 -4z m60 -6 c12 -8
11 -10 -7 -10 -13 0 -23 5 -23 10 0 13 11 13 30 0z m3748 -7 c-2 -13 -14 -17
-51 -18 -26 0 -47 3 -47 8 0 4 -18 7 -40 7 -26 0 -42 -6 -50 -17 -10 -16 -10
-16 -8 2 3 17 13 21 63 26 121 12 137 11 133 -8z m500 -8 c-2 -20 -8 -25 -30
-25 -15 0 -28 5 -28 11 0 8 -12 9 -37 5 -86 -15 -123 -18 -123 -8 0 19 164 30
175 12 3 -5 11 -10 16 -10 6 0 7 5 3 12 -4 7 -3 8 4 4 7 -4 12 -1 12 8 0 9 2
16 5 16 3 0 4 -11 3 -25z m19 -12 c-3 -10 -5 -4 -5 12 0 17 2 24 5 18 2 -7 2
-21 0 -30z m20 -25 c-2 -13 -4 -3 -4 22 0 25 2 35 4 23 2 -13 2 -33 0 -45z
m103 52 c0 -12 -8 -12 -35 0 -18 8 -17 9 8 9 15 1 27 -3 27 -9z m600 0 c0 -5
-4 -10 -10 -10 -5 0 -10 5 -10 10 0 6 5 10 10 10 6 0 10 -4 10 -10z m110 0
c-12 -8 -10 -10 8 -10 13 0 21 -4 18 -9 -4 -5 0 -12 6 -14 8 -4 7 -6 -4 -6
-25 -1 -11 -41 16 -42 14 -1 10 -4 -14 -11 -24 -7 -36 -6 -38 1 -2 6 -13 11
-23 11 -11 0 -17 5 -14 10 3 6 15 10 25 10 13 0 17 5 14 15 -4 9 0 15 7 15 9
1 8 4 -4 11 -18 11 -14 29 6 29 7 0 6 -4 -3 -10z m-5852 -42 c-1 -42 -1 -43
-6 -8 l-5 35 -7 -35 -7 -35 -2 43 c-1 31 3 42 14 42 11 0 15 -11 13 -42z m57
-8 c2 -22 -1 -38 -6 -34 -5 3 -9 24 -9 46 0 52 11 43 15 -12z m1608 43 c-7 -2
-19 -2 -25 0 -7 3 -2 5 12 5 14 0 19 -2 13 -5z m754 1 c-3 -3 -12 -4 -19 -1
-8 3 -5 6 6 6 11 1 17 -2 13 -5z m86 -1 c-7 -2 -21 -2 -30 0 -10 3 -4 5 12 5
17 0 24 -2 18 -5z m3307 3 c0 -3 -4 -8 -10 -11 -5 -3 -10 -1 -10 4 0 6 5 11
10 11 6 0 10 -2 10 -4z m167 -2 c-3 -3 -12 -4 -19 -1 -8 3 -5 6 6 6 11 1 17
-2 13 -5z m223 2 c0 -3 -4 -8 -10 -11 -5 -3 -10 -1 -10 4 0 6 5 11 10 11 6 0
10 -2 10 -4z m-3633 -12 c-3 -3 -12 -4 -19 -1 -8 3 -5 6 6 6 11 1 17 -2 13 -5z
m993 -4 c-20 -13 -33 -13 -25 0 3 6 14 10 23 10 15 0 15 -2 2 -10z m1568 -8
c-43 -5 -33 -28 15 -37 l42 -9 -45 -5 c-42 -6 -45 -4 -48 17 -6 39 4 50 35 43
l28 -6 -27 -3z m992 2 c0 -2 -26 -4 -57 -3 -39 1 -50 3 -34 8 24 6 91 3 91 -5z
m700 1 c0 -8 -4 -15 -10 -15 -5 0 -10 7 -10 15 0 8 5 15 10 15 6 0 10 -7 10
-15z m-6135 -5 c-3 -5 -14 -10 -23 -9 -14 0 -13 2 3 9 27 11 27 11 20 0z m824
0 c-14 -4 -43 -4 -65 0 -35 7 -32 8 26 8 46 0 58 -2 39 -8z m998 4 c-3 -3 -12
-4 -19 -1 -8 3 -5 6 6 6 11 1 17 -2 13 -5z m810 0 c-3 -3 -12 -4 -19 -1 -8 3
-5 6 6 6 11 1 17 -2 13 -5z m2450 0 c-3 -3 -12 -4 -19 -1 -8 3 -5 6 6 6 11 1
17 -2 13 -5z m996 -34 c18 0 19 -2 5 -17 -9 -10 -13 -24 -11 -31 4 -10 -2 -13
-18 -11 -13 2 -30 0 -36 -4 -9 -6 -13 -1 -13 14 0 12 -8 28 -17 35 -16 12 -16
13 9 14 19 0 29 7 34 23 l7 22 10 -22 c6 -13 19 -23 30 -23z m-4198 20 c-3 -5
-10 -10 -16 -10 -5 0 -9 5 -9 10 0 6 7 10 16 10 8 0 12 -4 9 -10z m3012 4 c-3
-3 -12 -4 -19 -1 -8 3 -5 6 6 6 11 1 17 -2 13 -5z m253 -4 c0 -5 -4 -10 -10
-10 -5 0 -10 5 -10 10 0 6 5 10 10 10 6 0 10 -4 10 -10z m510 6 c0 -2 -7 -7
-16 -10 -8 -3 -12 -2 -9 4 6 10 25 14 25 6z m-5119 -11 c22 -5 25 -10 21 -33
l-6 -27 -7 25 c-6 20 -7 21 -8 5 -1 -16 -3 -17 -10 -6 -12 19 -41 23 -41 5 0
-19 -36 -18 -44 2 -3 9 -6 19 -6 23 0 10 66 13 101 6z m232 -2 c-7 -2 -19 -2
-25 0 -7 3 -2 5 12 5 14 0 19 -2 13 -5z m497 -3 c0 -5 -8 -10 -17 -10 -15 0
-16 2 -3 10 19 12 20 12 20 0z m2540 0 c0 -5 -5 -10 -12 -10 -9 0 -9 -3 0 -12
7 -7 12 -20 12 -29 0 -15 -9 -17 -62 -14 -41 3 -65 0 -70 -8 -6 -9 -8 -9 -8 1
0 6 -7 12 -15 12 -18 0 -56 -36 -47 -44 3 -3 -4 -6 -15 -6 -15 0 -20 5 -18 18
2 9 4 20 4 24 1 4 8 5 17 1 9 -3 19 0 24 6 9 16 28 19 115 21 39 1 62 4 53 7
-10 2 -18 9 -18 14 0 13 -54 11 -68 -3 -9 -9 -12 -9 -12 0 0 7 -10 12 -23 12
-13 0 -28 -5 -35 -12 -7 -7 -12 -8 -12 -2 0 25 28 34 107 34 49 0 83 -4 83
-10z m1550 0 c0 -5 -5 -10 -11 -10 -5 0 -7 5 -4 10 3 6 8 10 11 10 2 0 4 -4 4
-10z m253 3 c-10 -3 -10 -7 0 -17 7 -9 28 -12 58 -9 29 3 50 0 54 -7 10 -17 7
-18 -81 -24 -44 -2 -92 -8 -106 -11 -16 -4 -29 -2 -33 5 -5 9 -1 10 13 6 14
-5 24 -1 31 11 6 10 11 12 11 6 0 -7 5 -13 11 -13 6 0 9 7 5 15 -3 8 0 14 6
12 7 -1 13 4 14 11 3 21 4 22 17 21 9 0 9 -2 0 -6z m-6210 -23 c3 -11 1 -20
-4 -20 -5 0 -9 9 -9 20 0 11 2 20 4 20 2 0 6 -9 9 -20z m681 -14 c-10 -8 -21
-10 -22 -5 -2 5 -8 7 -13 3 -5 -3 -9 2 -9 10 0 16 40 27 54 14 6 -5 2 -14 -10
-22z m1135 30 c-8 -8 -78 -10 -85 -3 -4 4 14 7 41 7 27 0 46 -2 44 -4z m3051
-11 c0 -5 5 -3 10 5 6 10 10 11 10 3 0 -7 9 -13 20 -13 11 0 20 5 20 11 0 6 9
1 20 -12 16 -20 19 -21 20 -6 0 19 16 23 22 5 2 -6 1 -31 -2 -55 -4 -24 -3
-43 1 -43 5 0 5 -10 0 -22 -10 -28 -26 -22 -26 9 -1 36 -15 40 -15 4 0 -20 -4
-30 -11 -26 -6 4 -9 31 -8 64 l3 56 -53 -3 c-37 -2 -51 1 -46 9 6 8 -7 9 -46
4 -30 -3 -61 -9 -71 -11 -9 -3 -19 0 -22 5 -6 9 12 14 84 24 45 6 90 2 90 -8z
m465 5 c-28 -12 -47 -12 -40 0 3 6 18 10 33 9 24 0 25 -1 7 -9z m495 0 c0 -5
-4 -10 -10 -10 -5 0 -10 5 -10 10 0 6 5 10 10 10 6 0 10 -4 10 -10z m53 3 c-7
-2 -21 -2 -30 0 -10 3 -4 5 12 5 17 0 24 -2 18 -5z m565 1 c34 -10 27 -34 -10
-35 -18 0 -44 -2 -57 -5 -14 -2 -28 1 -32 8 -12 20 0 29 23 15 17 -10 22 -9
32 6 12 19 12 19 44 11z m312 -10 c0 -8 -5 -12 -10 -9 -6 4 -8 11 -5 16 9 14
15 11 15 -7z m-6170 -4 c0 -5 -2 -10 -4 -10 -3 0 -8 5 -11 10 -3 6 -1 10 4 10
6 0 11 -4 11 -10z m1725 0 c3 -5 1 -10 -4 -10 -6 0 -11 5 -11 10 0 6 2 10 4
10 3 0 8 -4 11 -10z m2835 0 c0 -5 -7 -10 -15 -10 -8 0 -15 5 -15 10 0 6 7 10
15 10 8 0 15 -4 15 -10z m30 6 c0 -3 -4 -8 -10 -11 -5 -3 -10 -1 -10 4 0 6 5
11 10 11 6 0 10 -2 10 -4z m-903 -12 c-3 -3 -12 -4 -19 -1 -8 3 -5 6 6 6 11 1
17 -2 13 -5z m1093 2 c0 -2 -7 -6 -15 -10 -8 -3 -15 -1 -15 4 0 6 7 10 15 10
8 0 15 -2 15 -4z m510 -6 c0 -5 -10 -10 -22 -10 -19 0 -20 2 -8 10 19 13 30
13 30 0z m50 0 c-19 -13 -30 -13 -30 0 0 6 10 10 23 10 18 0 19 -2 7 -10z m47
4 c-3 -3 -12 -4 -19 -1 -8 3 -5 6 6 6 11 1 17 -2 13 -5z m-3932 -14 c3 -5 -3
-10 -14 -10 -12 0 -21 5 -21 10 0 6 6 10 14 10 8 0 18 -4 21 -10z m2038 3 c-7
-2 -19 -2 -25 0 -7 3 -2 5 12 5 14 0 19 -2 13 -5z m-3483 -13 c0 -5 -8 -10
-17 -10 -15 0 -16 2 -3 10 19 12 20 12 20 0z m2917 -37 c-3 -10 -5 -2 -5 17 0
19 2 27 5 18 2 -10 2 -26 0 -35z m1670 41 c-3 -3 -12 -4 -19 -1 -8 3 -5 6 6 6
11 1 17 -2 13 -5z m814 -17 c-10 -9 -11 -8 -5 6 3 10 9 15 12 12 3 -3 0 -11
-7 -18z m-5992 -27 c1 -3 -9 -6 -21 -7 -13 0 -17 1 -10 4 6 3 12 14 13 26 0
21 1 21 9 2 5 -11 9 -22 9 -25z m1853 30 c2 -5 15 -11 31 -12 15 -1 27 -6 27
-11 0 -5 -11 -6 -25 -3 -25 6 -36 -9 -12 -17 13 -4 -20 1 -88 14 -37 8 -37 8
12 5 29 -2 50 1 47 6 -3 4 -18 8 -34 8 -16 0 -32 5 -35 10 -4 6 10 10 34 10
21 0 41 -4 43 -10z m65 4 c-3 -3 -12 -4 -19 -1 -8 3 -5 6 6 6 11 1 17 -2 13
-5z m43 -4 c0 -5 -4 -10 -9 -10 -6 0 -13 5 -16 10 -3 6 1 10 9 10 9 0 16 -4
16 -10z m297 -12 c-3 -8 -6 -5 -6 6 -1 11 2 17 5 13 3 -3 4 -12 1 -19z m1023
10 c0 6 5 12 11 12 6 0 9 -6 6 -12 -3 -12 -22 -14 -72 -8 -14 2 -11 4 10 9 17
4 33 2 37 -4 5 -6 8 -6 8 3z m1544 -10 c9 -35 7 -91 -4 -108 -7 -11 -10 3 -10
47 l0 61 -32 -3 c-18 -3 -40 -5 -48 -6 -28 -4 -51 1 -46 9 3 5 26 9 53 11 26
1 49 4 52 7 11 11 29 2 35 -18z m-4147 -25 c-3 -10 -5 -4 -5 12 0 17 2 24 5
18 2 -7 2 -21 0 -30z m1393 27 c0 -5 -9 -9 -20 -7 -31 5 -36 17 -7 17 15 0 27
-4 27 -10z m1094 -5 c3 -9 0 -15 -9 -15 -8 0 -15 7 -15 15 0 8 4 15 9 15 5 0
11 -7 15 -15z m31 5 c3 -6 -1 -7 -9 -4 -18 7 -21 14 -7 14 6 0 13 -4 16 -10z
m178 3 c-13 -2 -33 -2 -45 0 -13 2 -3 4 22 4 25 0 35 -2 23 -4z m60 0 c-7 -2
-19 -2 -25 0 -7 3 -2 5 12 5 14 0 19 -2 13 -5z m1627 -3 c0 -5 -4 -10 -9 -10
-6 0 -13 5 -16 10 -3 6 1 10 9 10 9 0 16 -4 16 -10z m610 -20 c10 0 20 7 24
15 3 8 15 15 26 15 22 0 27 -15 8 -23 -7 -3 1 -5 17 -5 17 0 24 2 18 5 -7 2
-13 9 -13 14 0 14 28 11 33 -3 7 -22 -5 -48 -22 -48 -14 0 -14 2 -1 10 12 7 8
10 -15 10 -23 0 -27 -3 -15 -10 12 -8 8 -10 -15 -11 -27 -1 -28 -2 -7 -7 26
-8 30 -21 10 -33 -8 -6 -9 -9 -1 -9 14 0 5 -36 -13 -51 -16 -13 -19 -49 -4
-49 6 0 10 9 10 20 0 11 3 20 8 20 4 0 7 -18 7 -40 l0 -40 -41 0 -41 0 0 128
c0 70 1 119 4 110 2 -10 13 -18 23 -18z m728 12 c2 -7 -7 -12 -22 -12 -15 0
-29 -7 -33 -16 -5 -13 -7 -13 -14 -2 -7 11 -11 10 -19 -2 -8 -13 -10 -12 -10
3 0 9 8 17 18 17 9 0 26 7 37 15 21 17 37 15 43 -3z m349 -4 c-3 -8 -6 -5 -6
6 -1 11 2 17 5 13 3 -3 4 -12 1 -19z m-907 8 c0 -2 -7 -6 -15 -10 -8 -3 -15
-1 -15 4 0 6 7 10 15 10 8 0 15 -2 15 -4z m227 -2 c-3 -3 -12 -4 -19 -1 -8 3
-5 6 6 6 11 1 17 -2 13 -5z m-6142 -14 c17 -7 17 -9 3 -9 -12 -1 -18 -9 -18
-26 0 -16 -6 -25 -16 -25 -12 0 -15 7 -12 25 5 21 1 25 -21 26 l-26 1 25 8
c32 10 41 10 65 0z m675 6 c0 -9 -30 -14 -35 -6 -4 6 3 10 14 10 12 0 21 -2
21 -4z m830 -6 c0 -5 -8 -10 -17 -10 -15 0 -16 2 -3 10 19 12 20 12 20 0z m30
0 c0 -5 -5 -10 -11 -10 -5 0 -7 5 -4 10 3 6 8 10 11 10 2 0 4 -4 4 -10z m799
-6 c11 -11 -9 -13 -33 -4 -15 5 -32 8 -37 4 -5 -3 -9 0 -9 7 0 8 12 9 38 4 20
-4 39 -9 41 -11z m2141 9 c0 -3 -6 -11 -14 -19 -18 -17 -76 -19 -76 -1 0 9 -2
9 -9 -1 -10 -16 -93 -13 -88 2 4 13 187 31 187 19z m1026 -6 c5 -4 1 -5 -7 -2
-9 3 -22 -1 -29 -10 -8 -10 -9 -15 -1 -15 6 0 11 -4 11 -10 0 -6 -27 -9 -62
-9 -35 1 -51 4 -35 6 17 3 27 10 26 21 0 11 -3 12 -6 5 -2 -7 -9 -13 -14 -13
-4 0 -6 6 -3 14 8 20 104 30 120 13z m172 7 c16 -5 22 -14 22 -35 0 -29 -1
-29 -42 -23 -62 8 -65 10 -70 38 -5 24 -3 26 31 26 20 0 46 -3 59 -6z m569
-31 c-3 -10 -5 -4 -5 12 0 17 2 24 5 18 2 -7 2 -21 0 -30z m33 12 c0 -14 -4
-25 -9 -25 -4 0 -6 11 -3 25 2 14 6 25 8 25 2 0 4 -11 4 -25z m-4667 8 c-7 -2
-21 -2 -30 0 -10 3 -4 5 12 5 17 0 24 -2 18 -5z m3564 1 c-3 -3 -12 -4 -19 -1
-8 3 -5 6 6 6 11 1 17 -2 13 -5z m43 -4 c0 -5 -4 -10 -10 -10 -5 0 -10 5 -10
10 0 6 5 10 10 10 6 0 10 -4 10 -10z m347 -15 c-4 -8 -12 -15 -19 -14 -10 0
-10 2 0 6 6 2 12 12 12 21 0 8 3 13 6 9 4 -3 4 -13 1 -22z m450 19 c-3 -3 -12
-4 -19 -1 -8 3 -5 6 6 6 11 1 17 -2 13 -5z m43 2 c0 -3 -4 -8 -10 -11 -5 -3
-10 -1 -10 4 0 6 5 11 10 11 6 0 10 -2 10 -4z m247 -28 c-3 -7 -5 -2 -5 12 0
14 2 19 5 13 2 -7 2 -19 0 -25z m26 17 c-3 -9 -8 -14 -10 -11 -3 3 -2 9 2 15
9 16 15 13 8 -4z m31 0 c3 -8 1 -15 -4 -15 -6 0 -10 7 -10 15 0 8 2 15 4 15 2
0 6 -7 10 -15z m150 0 c3 -8 1 -15 -4 -15 -6 0 -10 7 -10 15 0 8 2 15 4 15 2
0 6 -7 10 -15z m-3271 -37 c-4 -8 47 -48 61 -47 4 0 14 -11 22 -26 11 -22 11
-30 -8 -61 -27 -45 -34 -38 -11 11 14 29 15 39 5 43 -7 2 -19 10 -27 19 -13
13 -15 10 -15 -26 0 -23 -9 -55 -21 -75 -26 -44 -30 -45 -19 -6 5 18 5 32 -1
35 -15 10 -10 25 7 25 13 0 13 2 2 13 -9 9 -13 35 -12 73 2 71 3 74 13 49 5
-11 7 -23 4 -27z m859 2 c-6 -41 -12 -38 -12 6 0 19 4 33 8 30 5 -3 7 -19 4
-36z m1795 34 c-3 -3 -12 -4 -19 -1 -8 3 -5 6 6 6 11 1 17 -2 13 -5z m913 -4
c0 -5 -4 -10 -10 -10 -5 0 -10 5 -10 10 0 6 5 10 10 10 6 0 10 -4 10 -10z
m-4925 -9 c3 -5 22 -8 43 -6 20 3 29 2 19 -1 -9 -3 -15 -10 -12 -15 7 -11 -16
-11 -70 0 -29 7 -33 9 -15 11 23 1 23 2 5 10 -19 8 -19 9 2 9 12 1 24 -3 28
-8z m1115 5 c0 -2 -7 -6 -15 -10 -8 -3 -15 -1 -15 4 0 6 7 10 15 10 8 0 15 -2
15 -4z m1845 -6 c-41 -11 -87 -12 -81 -2 3 5 29 9 58 9 44 1 48 0 23 -7z m300
0 c15 0 17 -2 6 -9 -7 -5 -10 -14 -7 -20 4 -6 2 -11 -3 -11 -6 0 -11 -18 -11
-40 0 -39 1 -40 35 -40 19 0 35 -5 35 -11 0 -6 -9 -9 -20 -6 -15 4 -20 0 -20
-14 0 -13 -5 -17 -17 -12 -15 5 -14 3 2 -10 16 -13 17 -16 4 -17 -9 0 -21 -10
-26 -22 -9 -21 -10 -20 -11 12 -3 169 -6 195 -21 203 -10 5 -7 6 9 2 14 -2 34
-5 45 -5z m-5088 -22 c-3 -8 -6 -5 -6 6 -1 11 2 17 5 13 3 -3 4 -12 1 -19z
m33 -2 c0 -14 -5 -28 -10 -31 -6 -4 -10 5 -8 24 3 37 18 42 18 7z m667 16 c8
-5 9 -13 3 -22 -8 -13 -10 -13 -10 2 0 9 -6 19 -12 21 -7 3 -8 6 -3 6 6 0 15
-3 22 -7z m3293 -2 c0 -5 -7 -10 -15 -10 -8 0 -15 5 -15 10 0 6 7 10 15 10 8
0 15 -4 15 -10z m110 0 c0 -5 -7 -10 -16 -10 -8 0 -12 5 -9 10 3 6 10 10 16
10 5 0 9 -4 9 -10z m1070 -5 c0 -8 -4 -15 -10 -15 -5 0 -10 7 -10 15 0 8 5 15
10 15 6 0 10 -7 10 -15z m24 -1 c3 -8 2 -12 -4 -9 -6 3 -10 10 -10 16 0 14 7
11 14 -7z m-5005 -18 c0 -12 -3 -15 -6 -8 -2 6 -9 10 -14 6 -5 -3 -9 1 -9 9 0
7 7 14 15 14 9 0 15 -9 14 -21z m1277 10 c21 -21 17 -36 -8 -37 -22 0 -22 -1
-3 -9 18 -8 17 -9 -8 -9 -16 -1 -26 3 -22 9 3 6 -1 10 -9 10 -9 0 -16 -7 -16
-15 0 -12 -10 -15 -40 -13 -52 4 -54 27 -2 29 30 2 32 3 10 6 -20 3 -28 10
-28 24 0 16 7 19 56 19 35 0 61 -5 70 -14z m2028 -13 c-11 -42 -30 -55 -82
-57 -38 -1 -47 -4 -46 -18 2 -23 -22 -23 -30 -1 -4 11 2 25 17 41 20 20 28 22
45 13 25 -13 55 -15 48 -2 -3 5 3 11 14 14 11 3 20 12 20 21 0 9 5 16 10 16 6
0 8 -11 4 -27z m916 18 c0 -5 -41 -11 -90 -13 -50 -2 -90 0 -90 4 0 9 29 13
113 15 37 2 67 -1 67 -6z m1418 2 c-10 -2 -28 -2 -40 0 -13 2 -5 4 17 4 22 1
32 -1 23 -4z m-5223 -13 c3 -5 -1 -10 -10 -10 -9 0 -13 5 -10 10 3 6 8 10 10
10 2 0 7 -4 10 -10z m42 4 c-3 -3 -12 -4 -19 -1 -8 3 -5 6 6 6 11 1 17 -2 13
-5z m886 -1 c-7 -2 -19 -2 -25 0 -7 3 -2 5 12 5 14 0 19 -2 13 -5z m1617 -9
c0 -2 -11 -4 -25 -4 -14 0 -25 4 -25 9 0 4 11 6 25 3 14 -2 25 -6 25 -8z
m2140 6 c0 -5 -4 -10 -10 -10 -5 0 -10 5 -10 10 0 6 5 10 10 10 6 0 10 -4 10
-10z m47 -37 c-3 -10 -5 -4 -5 12 0 17 2 24 5 18 2 -7 2 -21 0 -30z m33 12 c0
-14 -4 -25 -9 -25 -4 0 -6 11 -3 25 2 14 6 25 8 25 2 0 4 -11 4 -25z m17 -12
c-3 -10 -5 -4 -5 12 0 17 2 24 5 18 2 -7 2 -21 0 -30z m50 0 c-3 -10 -5 -4 -5
12 0 17 2 24 5 18 2 -7 2 -21 0 -30z m50 0 c-3 -10 -5 -4 -5 12 0 17 2 24 5
18 2 -7 2 -21 0 -30z m341 30 c-10 -2 -28 -2 -40 0 -13 2 -5 4 17 4 22 1 32
-1 23 -4z m-5718 -24 c0 -5 -4 -9 -8 -9 -5 0 -9 7 -9 15 0 8 4 12 9 9 4 -3 8
-9 8 -15z m575 11 c3 -5 2 -10 -4 -10 -5 0 -13 5 -16 10 -3 6 -2 10 4 10 5 0
13 -4 16 -10z m830 0 c3 -5 1 -10 -4 -10 -6 0 -11 5 -11 10 0 6 2 10 4 10 3 0
8 -4 11 -10z m348 3 c-18 -2 -48 -2 -65 0 -18 2 -4 4 32 4 36 0 50 -2 33 -4z
m572 -3 c-3 -5 -13 -10 -21 -10 -8 0 -14 5 -14 10 0 6 9 10 21 10 11 0 17 -4
14 -10z m2364 -4 c-10 -9 -99 -15 -99 -6 0 5 21 10 48 12 46 3 59 2 51 -6z
m790 -5 c26 -8 37 -8 43 2 5 8 8 7 8 -5 0 -14 -9 -18 -41 -18 -42 0 -79 14
-79 30 0 9 13 8 69 -9z m-5432 -38 c-3 -10 -5 -2 -5 17 0 19 2 27 5 18 2 -10
2 -26 0 -35z m1119 10 c-11 -11 -19 6 -11 24 8 17 8 17 12 0 3 -10 2 -21 -1
-24z m2867 16 c4 -15 0 -19 -19 -19 -16 0 -24 6 -24 18 0 25 37 26 43 1z
m1157 9 c0 6 5 12 10 12 6 0 10 -7 10 -15 0 -8 -9 -15 -20 -15 -12 0 -20 7
-20 18 0 14 2 15 10 2 6 -10 10 -11 10 -2z m120 -9 c0 -5 -4 -9 -10 -9 -5 0
-10 7 -10 16 0 8 5 12 10 9 6 -3 10 -10 10 -16z m437 7 c9 -9 -49 -6 -72 4
-14 5 -7 7 23 5 24 -1 46 -5 49 -9z m-5247 -6 c-19 -13 -30 -13 -30 0 0 6 10
10 23 10 18 0 19 -2 7 -10z m1310 -4 c8 -2 -19 -4 -60 -5 -41 0 -70 3 -63 7
11 7 89 5 123 -2z m-1956 -4 c3 -5 -18 -10 -45 -11 -28 -1 -48 2 -46 6 8 12
84 16 91 5z m1616 -2 c-20 -13 -47 -13 -55 0 -4 6 9 10 32 10 28 0 34 -3 23
-10z m150 2 c0 -4 -9 -8 -20 -8 -11 0 -20 4 -20 8 0 4 9 8 20 8 11 0 20 -4 20
-8z m270 -2 c0 -5 -4 -10 -9 -10 -6 0 -13 5 -16 10 -3 6 1 10 9 10 9 0 16 -4
16 -10z m1980 0 c0 -5 -5 -10 -11 -10 -5 0 -7 5 -4 10 3 6 8 10 11 10 2 0 4
-4 4 -10z m430 0 c0 -5 -10 -10 -23 -10 -13 0 -28 -5 -35 -12 -9 -9 -12 -9
-12 0 0 17 -97 16 -103 0 -4 -8 -6 -7 -6 4 -1 9 5 19 12 21 23 10 167 7 167
-3z m-4405 -10 c-3 -5 -11 -10 -16 -10 -6 0 -7 5 -4 10 3 6 11 10 16 10 6 0 7
-4 4 -10z m192 -22 c-3 -7 -5 -2 -5 12 0 14 2 19 5 13 2 -7 2 -19 0 -25z
m3359 19 c9 3 14 -1 14 -14 0 -12 -7 -19 -20 -19 -15 0 -20 7 -19 26 0 14 3
20 5 13 3 -7 12 -9 20 -6z m2264 1 c0 -12 -48 -10 -55 2 -4 6 5 10 24 8 17 -1
31 -6 31 -10z m297 6 c-3 -3 -12 -4 -19 -1 -8 3 -5 6 6 6 11 1 17 -2 13 -5z
m-5513 -25 c-3 -5 -10 -7 -15 -3 -5 3 -7 10 -3 15 3 5 10 7 15 3 5 -3 7 -10 3
-15z m866 11 c0 -5 -15 -9 -32 -9 l-33 1 30 8 c17 4 31 8 33 9 1 0 2 -3 2 -9z
m330 0 c0 -7 15 -9 38 -6 28 4 31 4 12 -3 -24 -8 -24 -8 10 -14 19 -3 -3 -4
-50 -2 -47 2 -96 9 -110 15 -21 9 -18 10 22 6 26 -3 50 -1 53 4 8 13 25 13 25
0z m2420 6 c0 -3 -4 -8 -10 -11 -5 -3 -10 -1 -10 4 0 6 5 11 10 11 6 0 10 -2
10 -4z m564 -2 c9 -3 16 -11 16 -16 0 -6 -6 -8 -14 -5 -8 3 -16 1 -18 -4 -2
-7 -18 -8 -41 -4 -40 8 -43 24 -2 20 14 -2 27 1 31 6 6 11 8 11 28 3z m555
-41 c-1 -30 -4 -38 -6 -20 -2 15 -9 25 -14 22 -13 -9 -11 14 4 30 17 20 17 20
16 -32z m39 -43 c-7 -17 -16 -30 -20 -30 -11 0 -10 18 2 25 5 3 6 13 3 22 -4
11 -3 14 5 9 7 -4 12 -1 12 8 0 10 -6 13 -15 10 -9 -4 -15 0 -15 10 0 9 7 16
15 16 8 0 16 6 17 13 0 6 3 -3 5 -21 2 -18 -2 -46 -9 -62z m-3788 76 c0 -8
-48 -12 -66 -5 -13 5 -7 8 24 8 23 1 42 -1 42 -3z m73 -3 c-7 -2 -19 -2 -25 0
-7 3 -2 5 12 5 14 0 19 -2 13 -5z m364 1 c-3 -3 -12 -4 -19 -1 -8 3 -5 6 6 6
11 1 17 -2 13 -5z m328 -4 c3 -5 1 -10 -4 -10 -6 0 -11 5 -11 10 0 6 2 10 4
10 3 0 8 -4 11 -10z m1128 3 c-7 -2 -19 -2 -25 0 -7 3 -2 5 12 5 14 0 19 -2
13 -5z m830 0 c-7 -2 -19 -2 -25 0 -7 3 -2 5 12 5 14 0 19 -2 13 -5z m2004
-15 c-3 -8 -6 -5 -6 6 -1 11 2 17 5 13 3 -3 4 -12 1 -19z m-6387 2 c0 -5 -7
-10 -15 -10 -8 0 -15 5 -15 10 0 6 7 10 15 10 8 0 15 -4 15 -10z m3996 -37
c-5 -118 -6 -123 -20 -123 -29 0 -9 162 20 170 1 0 1 -21 0 -47z m924 43 c0
-3 -4 -8 -10 -11 -5 -3 -10 -1 -10 4 0 6 5 11 10 11 6 0 10 -2 10 -4z m143
-38 c0 -21 -2 -48 -3 -60 -2 -19 -3 -20 -7 -5 -3 11 -11 16 -19 13 -8 -3 -14
-1 -14 4 0 6 8 11 18 11 16 1 16 2 0 6 -10 2 -18 9 -18 14 0 5 8 9 18 10 14 0
14 2 -3 9 -11 5 -17 9 -12 11 4 1 12 3 17 4 6 1 13 4 18 5 4 1 -4 6 -18 11
l-25 8 25 -2 c21 -2 24 -7 23 -39z m642 31 c12 -18 -3 -22 -62 -13 l-58 8 50
7 c28 3 53 7 57 7 4 1 10 -3 13 -9z m162 5 c-3 -3 -12 -4 -19 -1 -8 3 -5 6 6
6 11 1 17 -2 13 -5z m-5102 -14 c-3 -5 -14 -10 -23 -9 -14 0 -13 2 3 9 27 11
27 11 20 0z m745 6 c0 -3 -4 -8 -10 -11 -5 -3 -10 -1 -10 4 0 6 5 11 10 11 6
0 10 -2 10 -4z m2027 -2 c-3 -3 -12 -4 -19 -1 -8 3 -5 6 6 6 11 1 17 -2 13 -5z
m533 -4 c12 -8 9 -10 -12 -10 -16 0 -28 5 -28 10 0 13 20 13 40 0z m400 1 c0
-7 -28 -11 -73 -11 -39 0 -87 -4 -105 -9 -32 -10 -41 -4 -22 15 14 14 200 18
200 5z m625 -1 c3 -5 1 -10 -4 -10 -6 0 -11 5 -11 10 0 6 2 10 4 10 3 0 8 -4
11 -10z m212 4 c-10 -10 -77 -12 -83 -2 -3 4 16 8 42 8 26 0 44 -3 41 -6z
m183 -4 c0 -5 -2 -10 -4 -10 -3 0 -8 5 -11 10 -3 6 -1 10 4 10 6 0 11 -4 11
-10z m20 -35 c0 -33 -4 -45 -15 -45 -8 0 -15 5 -15 10 0 6 5 10 10 10 6 0 10
16 10 35 0 19 2 35 5 35 3 0 5 -20 5 -45z m47 -37 c-2 -18 -4 -6 -4 27 0 33 2
48 4 33 2 -15 2 -42 0 -60z m483 72 c-18 -12 -30 -13 -30 -2 0 4 10 9 22 9 18
2 20 0 8 -7z m-5365 -10 c3 -5 -1 -10 -9 -10 -9 0 -16 5 -16 10 0 6 4 10 9 10
6 0 13 -4 16 -10z m963 3 c-10 -2 -28 -2 -40 0 -13 2 -5 4 17 4 22 1 32 -1 23
-4z m3273 -11 c-7 -2 -18 1 -23 6 -8 8 -4 9 13 5 13 -4 18 -8 10 -11z m956 12
c-3 -3 -12 -4 -19 -1 -8 3 -5 6 6 6 11 1 17 -2 13 -5z m96 -1 c-7 -2 -19 -2
-25 0 -7 3 -2 5 12 5 14 0 19 -2 13 -5z m-5635 -15 c-7 -19 -35 -21 -41 -3 -5
11 0 15 19 15 16 0 24 -5 22 -12z m1632 2 c-12 -8 -12 -10 5 -10 20 -1 20 -1
1 -15 -11 -8 -36 -14 -55 -13 l-36 1 38 4 c55 6 45 23 -15 25 l-53 1 55 7 c30
4 60 7 65 8 6 1 3 -3 -5 -8z m140 0 c0 -13 -20 -13 -40 0 -12 8 -9 10 13 10
15 0 27 -4 27 -10z m1445 0 l-20 -9 20 -1 c17 -2 16 -3 -5 -10 -25 -8 -25 -8
-2 -9 14 -1 20 -5 17 -12 -4 -6 -13 -8 -21 -5 -17 7 -18 -6 -2 -22 8 -8 9 -12
1 -12 -6 0 -14 6 -16 13 -3 7 -6 5 -6 -5 -1 -12 7 -18 23 -18 27 0 36 -31 26
-85 l-6 -30 -7 27 c-4 14 -4 33 -1 42 4 11 -2 19 -20 26 -14 5 -26 16 -26 24
0 8 -3 23 -6 33 -5 15 -4 15 5 3 8 -12 11 -7 11 23 0 34 2 37 28 36 24 0 25
-1 7 -9z m1325 -11 c0 -5 -26 -9 -57 -9 -62 0 -64 16 -3 22 40 4 60 0 60 -13z
m-3337 4 c-7 -2 -21 -2 -30 0 -10 3 -4 5 12 5 17 0 24 -2 18 -5z m112 -3 c4
-6 -5 -10 -20 -10 -15 0 -24 4 -20 10 3 6 12 10 20 10 8 0 17 -4 20 -10z m492
4 c-3 -3 -12 -4 -19 -1 -8 3 -5 6 6 6 11 1 17 -2 13 -5z m2957 -5 c-3 -6 0
-15 7 -20 10 -6 11 -9 2 -9 -7 0 -13 -6 -13 -14 0 -8 6 -17 13 -19 7 -3 5 -6
-5 -6 -14 -1 -18 7 -18 39 0 22 5 40 11 40 5 0 7 -5 3 -11z m292 -47 c-11 -10
-14 3 -8 33 l7 30 3 -28 c2 -16 1 -31 -2 -35z m484 48 c0 -5 -9 -10 -21 -10
-11 0 -17 5 -14 10 3 6 13 10 21 10 8 0 14 -4 14 -10z m218 3 c-21 -2 -55 -2
-75 0 -21 2 -4 4 37 4 41 0 58 -2 38 -4z m69 1 c-3 -3 -12 -4 -19 -1 -8 3 -5
6 6 6 11 1 17 -2 13 -5z m-6100 -36 c-3 -7 -5 -2 -5 12 0 14 2 19 5 13 2 -7 2
-19 0 -25z m628 20 c5 4 5 2 1 -5 -8 -14 -36 -6 -36 9 0 7 5 6 13 -1 8 -6 18
-7 22 -3z m1113 5 c-10 -2 -26 -2 -35 0 -10 3 -2 5 17 5 19 0 27 -2 18 -5z
m702 -3 c0 -5 -12 -10 -27 -9 -25 0 -26 1 -8 9 27 12 35 12 35 0z m247 4 c-3
-3 -12 -4 -19 -1 -8 3 -5 6 6 6 11 1 17 -2 13 -5z m712 -56 c1 -16 -3 -28 -9
-28 -5 0 -10 21 -9 48 0 35 3 42 9 27 5 -11 9 -32 9 -47z m1898 25 c-3 -10 -5
-4 -5 12 0 17 2 24 5 18 2 -7 2 -21 0 -30z m179 10 c-10 -10 -19 5 -10 18 6
11 8 11 12 0 2 -7 1 -15 -2 -18z m164 -4 c0 -10 -94 2 -105 14 -7 6 -3 8 12 4
13 -3 25 -1 28 3 6 9 65 -10 65 -21z m-1595 -6 c-5 -22 -4 -25 8 -15 8 7 22
10 31 6 9 -3 16 -1 16 6 0 6 -5 8 -11 4 -7 -4 -10 -1 -7 6 2 8 14 14 26 15 17
1 19 -2 11 -17 -7 -14 -6 -18 6 -18 10 0 13 5 9 13 -5 8 -2 8 9 -2 19 -15 24
-2 6 16 -8 8 2 11 35 10 50 0 59 -18 14 -27 -22 -4 -24 -7 -12 -18 8 -7 14 -8
14 -2 0 5 14 10 30 10 17 0 30 5 30 10 0 6 -4 10 -10 10 -5 0 -10 5 -10 10 0
6 35 10 86 10 64 0 85 -3 81 -12 -3 -12 -21 -15 -104 -17 -18 -1 -33 -5 -33
-11 0 -6 29 -10 67 -10 83 0 79 -8 -5 -11 -52 -2 -67 -7 -88 -27 -19 -19 -22
-27 -12 -33 7 -5 15 -4 16 1 5 13 59 13 67 1 3 -6 17 -4 33 5 36 19 42 18 42
-7 0 -16 -5 -20 -20 -16 -14 3 -20 0 -20 -10 0 -10 6 -14 20 -10 11 3 20 2 20
-2 0 -4 42 -12 94 -19 127 -16 197 -32 190 -43 -3 -5 -9 -7 -13 -5 -14 9 -204
36 -321 46 -149 13 -506 13 -607 0 -43 -5 -126 -17 -185 -27 l-106 -16 -39
-50 c-61 -79 -82 -103 -83 -92 0 6 20 39 45 73 39 54 43 62 25 62 -11 0 -20 5
-20 11 0 5 -4 7 -10 4 -6 -4 -10 7 -10 27 0 25 3 29 10 18 7 -11 10 -7 10 18
0 20 4 31 10 27 6 -3 10 -24 10 -46 0 -47 -3 -46 135 -20 55 11 135 23 178 26
42 4 79 10 81 14 3 4 -11 5 -30 3 -21 -3 -34 0 -34 7 0 7 28 11 80 11 64 0 78
3 74 14 -3 8 -1 17 5 21 7 3 11 -2 11 -13 0 -15 5 -19 20 -15 11 3 20 1 20 -5
0 -6 -10 -13 -22 -15 -20 -4 -19 -4 5 -6 24 -1 27 3 27 30 0 29 2 31 28 25 15
-4 22 -3 15 1 -8 6 -6 14 7 31 20 24 35 30 25 10 -4 -7 1 -4 9 6 9 11 16 26
16 33 0 7 3 13 6 13 3 0 3 -12 -1 -27z m812 21 c-3 -3 -12 -4 -19 -1 -8 3 -5
6 6 6 11 1 17 -2 13 -5z m1259 -32 c-4 -3 -11 0 -16 8 -15 24 -11 33 6 15 9
-9 13 -19 10 -23z m-6019 22 c-3 -3 -12 -4 -19 -1 -8 3 -5 6 6 6 11 1 17 -2
13 -5z m580 -31 c-3 -10 -5 -4 -5 12 0 17 2 24 5 18 2 -7 2 -21 0 -30z m640
31 c-3 -3 -12 -4 -19 -1 -8 3 -5 6 6 6 11 1 17 -2 13 -5z m273 -4 c-20 -13
-50 -13 -50 0 0 6 15 10 33 10 24 0 28 -3 17 -10z m1767 -37 c-3 -10 -5 -2 -5
17 0 19 2 27 5 18 2 -10 2 -26 0 -35z m650 41 c-3 -3 -12 -4 -19 -1 -8 3 -5 6
6 6 11 1 17 -2 13 -5z m653 -4 c12 -8 11 -10 -7 -10 -13 0 -23 5 -23 10 0 13
11 13 30 0z m77 4 c-3 -3 -12 -4 -19 -1 -8 3 -5 6 6 6 11 1 17 -2 13 -5z m445
-3 c8 11 9 11 6 1 -4 -16 -22 -18 -25 -2 -1 7 0 6 4 -1 4 -8 8 -7 15 2z m625
3 c-3 -3 -12 -4 -19 -1 -8 3 -5 6 6 6 11 1 17 -2 13 -5z m100 0 c-3 -3 -12 -4
-19 -1 -8 3 -5 6 6 6 11 1 17 -2 13 -5z m-5697 -14 c0 -5 -2 -10 -4 -10 -3 0
-8 5 -11 10 -3 6 -1 10 4 10 6 0 11 -4 11 -10z m1261 -8 c-7 -2 -18 1 -23 6
-8 8 -4 9 13 5 13 -4 18 -8 10 -11z m979 -3 c0 -5 -8 -9 -18 -9 -10 0 -19 6
-19 14 0 8 8 11 19 8 10 -2 18 -8 18 -13z m2395 3 c-3 -10 0 -12 10 -8 9 3 15
0 15 -8 0 -14 -56 -10 -65 4 -3 5 -28 6 -55 3 -32 -3 -50 -1 -50 6 0 15 103
14 119 -1 11 -11 13 -10 8 3 -3 10 1 16 9 16 9 0 13 -6 9 -15z m395 8 c0 -5
-7 -7 -15 -4 -8 4 -15 8 -15 10 0 2 7 4 15 4 8 0 15 -4 15 -10z m1703 3 c-67
-2 -179 -2 -250 0 -70 1 -15 3 122 3 138 0 195 -2 128 -3z m-6643 -19 c0 -2
-14 -4 -31 -4 -16 0 -28 4 -25 9 5 8 56 3 56 -5z m320 6 c13 -8 13 -10 -2 -10
-9 0 -20 5 -23 10 -8 13 5 13 25 0z m690 0 c0 -5 -5 -10 -11 -10 -5 0 -7 5 -4
10 3 6 8 10 11 10 2 0 4 -4 4 -10z m518 3 c-10 -2 -26 -2 -35 0 -10 3 -2 5 17
5 19 0 27 -2 18 -5z m1405 -8 c-3 -9 -8 -14 -10 -11 -3 3 -2 9 2 15 9 16 15
13 8 -4z m2247 0 c0 -8 -4 -15 -10 -15 -5 0 -7 7 -4 15 4 8 8 15 10 15 2 0 4
-7 4 -15z m280 5 c0 -5 -11 -10 -24 -10 -13 0 -27 -5 -29 -10 -3 -6 -4 -5 -3
2 1 7 13 15 27 19 13 4 25 7 27 8 1 1 2 -3 2 -9z m40 0 c-20 -13 -33 -13 -25
0 3 6 14 10 23 10 15 0 15 -2 2 -10z m-5803 -32 c-3 -7 -5 -2 -5 12 0 14 2 19
5 13 2 -7 2 -19 0 -25z m568 11 c-5 -15 -4 -19 4 -15 7 5 11 -3 10 -21 0 -15
-3 -23 -5 -17 -3 6 -17 9 -32 7 -23 -3 -24 -2 -7 6 18 9 16 11 -15 15 -6 0
-14 7 -18 13 -5 7 -39 17 -77 22 l-70 8 108 2 c106 1 108 1 102 -20z m1010 11
c-3 -5 -13 -10 -21 -10 -8 0 -14 5 -14 10 0 6 9 10 21 10 11 0 17 -4 14 -10z
m128 3 c-7 -2 -21 -2 -30 0 -10 3 -4 5 12 5 17 0 24 -2 18 -5z m3877 -25 c0
-3 -9 -4 -20 -1 -16 4 -18 8 -9 20 10 11 14 11 20 1 5 -7 9 -16 9 -20z m110
11 c0 -6 -4 -7 -10 -4 -5 3 -10 11 -10 16 0 6 5 7 10 4 6 -3 10 -11 10 -16z
m156 -6 c-10 -10 -19 5 -10 18 6 11 8 11 12 0 2 -7 1 -15 -2 -18z m-5634 -72
c-2 -34 -8 -61 -14 -61 -9 0 -9 96 0 134 9 36 17 -8 14 -73z m1668 75 c8 -2
-11 -4 -42 -5 -32 0 -58 2 -58 7 0 7 64 6 100 -2z m2670 -14 c0 -16 -7 -37
-15 -48 -13 -18 -14 -16 -15 22 0 22 3 44 7 47 14 14 23 6 23 -21z m117 22
c-3 -3 -12 -4 -19 -1 -8 3 -5 6 6 6 11 1 17 -2 13 -5z m940 -16 c-3 -8 -6 -5
-6 6 -1 11 2 17 5 13 3 -3 4 -12 1 -19z m37 6 c3 -8 2 -12 -4 -9 -6 3 -10 10
-10 16 0 14 7 11 14 -7z m459 9 c-13 -2 -35 -2 -50 0 -16 2 -5 4 22 4 28 0 40
-2 28 -4z m92 -3 c4 -6 -5 -10 -19 -10 -14 0 -26 5 -26 10 0 6 9 10 19 10 11
0 23 -4 26 -10z m-5575 -21 c0 -4 -7 -6 -15 -3 -8 4 -15 10 -15 15 0 4 7 6 15
3 8 -4 15 -10 15 -15z m-445 -76 c-3 -18 -10 -33 -15 -33 -6 0 -10 4 -10 8 0
5 -14 9 -31 10 -40 1 -59 18 -59 52 0 28 7 31 68 31 17 0 32 6 33 12 0 7 5 -1
10 -18 5 -16 7 -45 4 -62z m72 55 c-3 -7 -5 -2 -5 12 0 14 2 19 5 13 2 -7 2
-19 0 -25z m1218 12 c2 -4 -27 -8 -65 -9 -40 -1 -70 2 -70 8 0 5 8 7 18 5 9
-2 31 -1 47 4 31 9 62 5 70 -8z m118 13 c-7 -2 -21 -2 -30 0 -10 3 -4 5 12 5
17 0 24 -2 18 -5z m64 1 c-3 -3 -12 -4 -19 -1 -8 3 -5 6 6 6 11 1 17 -2 13 -5z
m101 -1 c-15 -2 -42 -2 -60 0 -18 2 -6 4 27 4 33 0 48 -2 33 -4z m199 1 c-3
-3 -12 -4 -19 -1 -8 3 -5 6 6 6 11 1 17 -2 13 -5z m1273 -41 c0 -37 -3 -44
-12 -35 -7 7 -20 12 -30 12 -10 0 -18 4 -18 9 0 5 9 7 20 4 12 -3 20 -2 18 3
-2 11 11 54 18 54 2 0 4 -21 4 -47z m2720 37 c0 -5 -4 -10 -10 -10 -5 0 -10 5
-10 10 0 6 5 10 10 10 6 0 10 -4 10 -10z m84 -10 c-21 -8 -37 -3 -29 10 3 4
15 6 27 2 21 -5 21 -6 2 -12z m-1354 0 c0 -5 -7 -10 -15 -10 -8 0 -15 5 -15
10 0 6 7 10 15 10 8 0 15 -4 15 -10z m1125 0 c-3 -5 -17 -10 -31 -10 -13 0
-24 5 -24 10 0 6 14 10 31 10 17 0 28 -4 24 -10z m-3917 -7 c-10 -2 -26 -2
-35 0 -10 3 -2 5 17 5 19 0 27 -2 18 -5z m359 -30 c-3 -10 -5 -4 -5 12 0 17 2
24 5 18 2 -7 2 -21 0 -30z m1051 -35 l-2 -73 -3 67 c-3 53 -7 68 -21 71 -12 3
-11 5 6 6 21 1 22 -2 20 -71z m3400 65 c-21 -2 -55 -2 -75 0 -21 2 -4 4 37 4
41 0 58 -2 38 -4z m-5021 -9 c-3 -3 -12 -4 -19 -1 -8 3 -5 6 6 6 11 1 17 -2
13 -5z m2193 -2 c0 -5 -16 -9 -35 -10 -19 -1 -35 2 -35 6 0 4 16 9 35 10 19 2
35 -1 35 -6z m1026 -7 c14 -13 13 -15 -10 -15 -14 0 -26 5 -26 10 0 6 -10 10
-22 10 -19 0 -20 -2 -8 -10 13 -8 12 -10 -2 -10 -10 0 -18 -7 -18 -15 0 -9 -9
-15 -22 -15 -21 1 -21 2 -5 11 16 10 16 11 0 27 -12 12 -18 13 -21 4 -6 -18
-59 -15 -59 3 0 12 17 15 89 15 66 0 93 -4 104 -15z m-3459 -1 c-3 -3 -12 -4
-19 -1 -8 3 -5 6 6 6 11 1 17 -2 13 -5z m416 -1 c-7 -2 -21 -2 -30 0 -10 3 -4
5 12 5 17 0 24 -2 18 -5z m44 1 c-3 -3 -12 -4 -19 -1 -8 3 -5 6 6 6 11 1 17
-2 13 -5z m2687 -34 c1 -16 -2 -30 -6 -30 -5 0 -8 17 -8 37 0 43 13 37 14 -7z
m92 31 c-4 -5 0 -11 6 -14 10 -3 10 -8 -1 -18 -9 -9 -11 -9 -7 -1 4 6 2 12 -3
12 -6 0 -11 7 -11 15 0 8 5 15 11 15 5 0 8 -4 5 -9z m1044 -6 c0 -5 -10 -10
-23 -10 -29 0 -39 4 -31 16 8 13 55 7 54 -6z m-2623 -1 c-3 -3 -12 -4 -19 -1
-8 3 -5 6 6 6 11 1 17 -2 13 -5z m503 -4 c0 -5 -2 -10 -4 -10 -3 0 -8 5 -11
10 -3 6 -1 10 4 10 6 0 11 -4 11 -10z m-1675 -10 c4 -6 -19 -9 -62 -8 l-68 1
55 7 c30 4 58 7 62 8 4 1 10 -2 13 -8z m4879 0 c14 -5 26 -15 26 -21 0 -8 -4
-8 -14 0 -8 7 -27 11 -43 9 -27 -3 -28 -6 -34 -68 l-6 -65 -1 68 c-2 69 -1 71
45 86 1 1 13 -3 27 -9z m-3710 -16 c27 -26 0 -46 -33 -25 -12 8 -12 12 -2 25
16 20 16 20 35 0z m1637 -11 l2 -28 4 28 c2 15 8 25 12 23 15 -9 -1 -66 -18
-66 -12 0 -16 9 -16 35 0 41 14 48 16 8z m169 23 c0 -2 -7 -6 -15 -10 -8 -3
-15 -1 -15 4 0 6 7 10 15 10 8 0 15 -2 15 -4z m1617 -18 c-3 -8 -6 -5 -6 6 -1
11 2 17 5 13 3 -3 4 -12 1 -19z m-4767 8 c0 -9 -40 -13 -46 -5 -3 5 6 9 20 9
14 0 26 -2 26 -4z m1867 -2 c-3 -3 -12 -4 -19 -1 -8 3 -5 6 6 6 11 1 17 -2 13
-5z m2714 -17 c-10 -9 -11 -8 -5 6 3 10 9 15 12 12 3 -3 0 -11 -7 -18z m-3136
3 c3 -5 1 -10 -4 -10 -6 0 -11 5 -11 10 0 6 2 10 4 10 3 0 8 -4 11 -10z
m-1378 -6 c-3 -3 -12 -4 -19 -1 -8 3 -5 6 6 6 11 1 17 -2 13 -5z m1349 -10
c-1 -8 -5 -16 -8 -20 -4 -3 -4 -12 -2 -19 3 -7 0 -16 -7 -21 -9 -5 -10 -2 -6
9 4 10 1 17 -6 18 -9 0 -9 2 1 6 13 5 17 24 5 22 -19 -3 -27 2 -15 9 19 13 40
10 38 -4z m-632 0 c21 -8 21 -24 0 -24 -8 0 -13 4 -10 9 4 5 0 12 -6 14 -7 3
-10 6 -6 6 3 1 13 -2 22 -5z m1381 -7 c11 -12 7 -14 -26 -15 -29 -1 -39 2 -39
13 0 19 46 20 65 2z m65 8 c0 -2 -9 -19 -20 -37 l-19 -32 3 30 c2 16 4 32 5
37 1 8 31 10 31 2z m90 -4 c0 -5 -11 -11 -25 -13 -14 -3 -25 -3 -25 -1 0 3 34
19 48 22 1 1 2 -3 2 -8z m158 -8 c-2 -11 -14 -19 -31 -21 -15 -2 -27 -9 -28
-15 -1 -7 -4 -1 -8 13 -11 34 -5 40 35 40 28 0 35 -4 32 -17z m-1981 -25 c-3
-7 -5 -2 -5 12 0 14 2 19 5 13 2 -7 2 -19 0 -25z m129 7 c-1 -33 -16 -33 -16
0 0 14 4 25 9 25 5 0 8 -11 7 -25z m852 2 c3 -15 0 -18 -17 -12 -29 9 -27 -13
2 -25 20 -8 19 -9 -12 -9 -26 -1 -32 2 -27 15 3 9 6 25 6 36 0 26 43 21 48 -5z
m612 -27 c5 -45 5 -45 12 -12 5 21 13 32 25 32 14 0 15 -2 5 -9 -8 -4 -13 -10
-11 -12 5 -8 -13 -49 -21 -49 -16 0 -32 41 -26 66 6 24 -9 35 -16 12 -3 -7 -7
-5 -11 6 -6 14 -2 17 16 14 18 -2 23 -11 27 -48z m290 43 c0 -5 -4 -15 -10
-23 -11 -18 -25 -7 -17 15 6 15 27 21 27 8z m258 -15 c-2 -18 -9 -23 -28 -21
-14 1 -18 0 -7 -3 19 -6 19 -6 11 -28 -6 -15 -8 -15 -21 1 -13 16 -13 16 -3
-6 9 -17 9 -26 1 -34 -12 -12 -13 -10 -15 47 -1 22 -7 41 -14 44 -23 7 -3 18
38 20 38 3 41 1 38 -20z m-2178 2 c0 -5 -4 -10 -10 -10 -5 0 -10 5 -10 10 0 6
5 10 10 10 6 0 10 -4 10 -10z m608 -7 c2 -9 -8 -13 -33 -13 -21 0 -34 -4 -30
-10 3 -5 3 -16 -1 -22 -10 -15 -23 29 -16 50 6 17 74 12 80 -5z m39 -5 c-3 -8
-6 -5 -6 6 -1 11 2 17 5 13 3 -3 4 -12 1 -19z m783 12 c0 -5 -5 -10 -11 -10
-5 0 -7 5 -4 10 3 6 8 10 11 10 2 0 4 -4 4 -10z m352 -12 c-7 -7 -12 -8 -12
-2 0 14 12 26 19 19 2 -3 -1 -11 -7 -17z m95 0 c-3 -8 -6 -5 -6 6 -1 11 2 17
5 13 3 -3 4 -12 1 -19z m186 7 c4 -8 2 -17 -3 -20 -6 -4 -10 1 -10 10 0 9 -4
13 -10 10 -5 -3 -10 -1 -10 4 0 16 27 13 33 -4z m-678 -5 c4 -6 -7 -10 -27
-10 -25 0 -29 3 -18 10 19 13 37 13 45 0z m75 6 c0 -2 -7 -9 -15 -16 -13 -11
-14 -10 -9 4 5 14 24 23 24 12z m124 -12 c5 -14 -8 -54 -19 -54 -2 0 -3 16 -2
35 2 37 11 45 21 19z m356 1 c0 -8 -4 -15 -10 -15 -5 0 -7 7 -4 15 4 8 8 15
10 15 2 0 4 -7 4 -15z m370 5 c-13 -8 -13 -10 2 -10 9 0 19 6 21 13 3 7 6 5 6
-5 1 -14 -7 -18 -39 -18 -31 0 -38 3 -34 15 4 8 18 15 33 15 20 0 23 -2 11
-10z m-807 -13 c3 -8 2 -20 -3 -26 -5 -9 -7 -4 -7 13 0 29 2 32 10 13z m-1726
-3 c-3 -3 -12 -4 -19 -1 -8 3 -5 6 6 6 11 1 17 -2 13 -5z m1772 -31 c0 -31 -2
-34 -9 -18 -12 28 -12 55 0 55 6 0 10 -17 9 -37z m152 18 c-12 -12 -17 -27
-14 -40 3 -12 1 -21 -6 -21 -6 0 -11 -4 -11 -10 0 -19 21 -10 30 13 8 21 9 21
9 -5 1 -24 -3 -28 -28 -28 -17 0 -33 4 -36 10 -11 18 42 100 66 100 5 0 0 -9
-10 -19z m-1101 -1 c0 -5 -9 -10 -20 -10 -11 0 -20 5 -20 10 0 6 9 10 20 10
11 0 20 -4 20 -10z m30 0 c0 -5 -5 -10 -11 -10 -5 0 -7 5 -4 10 3 6 8 10 11
10 2 0 4 -4 4 -10z m-1023 -6 c-3 -3 -12 -4 -19 -1 -8 3 -5 6 6 6 11 1 17 -2
13 -5z m133 2 c0 -3 -4 -8 -10 -11 -5 -3 -10 -1 -10 4 0 6 5 11 10 11 6 0 10
-2 10 -4z m2336 -31 c0 -20 -5 -35 -12 -35 -6 0 -10 10 -9 23 1 12 3 28 4 35
3 28 17 9 17 -23z m-470 -2 c-3 -8 -2 -12 3 -9 9 6 25 -24 17 -32 -8 -7 -56
-5 -64 3 -4 3 1 12 10 19 10 7 15 16 12 19 -3 3 -3 11 1 16 9 16 28 2 21 -16z
m-2018 10 c-10 -2 -26 -2 -35 0 -10 3 -2 5 17 5 19 0 27 -2 18 -5z m1162 -3
c0 -5 -4 -10 -10 -10 -5 0 -10 5 -10 10 0 6 5 10 10 10 6 0 10 -4 10 -10z
m783 -20 c5 -21 -1 -24 -27 -14 -12 5 -13 9 -4 24 14 22 23 19 31 -10z m337
26 c0 -3 -4 -8 -10 -11 -5 -3 -10 -1 -10 4 0 6 5 11 10 11 6 0 10 -2 10 -4z
m60 -8 c0 -4 -4 -8 -9 -8 -6 0 -12 4 -15 8 -3 5 1 9 9 9 8 0 15 -4 15 -9z m47
-2 c-5 -16 -27 -19 -27 -3 0 7 7 14 15 14 9 0 14 -5 12 -11z m54 5 c-7 -5 -11
-13 -7 -19 3 -6 2 -13 -4 -17 -5 -3 -10 -2 -10 4 0 5 -3 16 -6 25 -5 12 0 16
17 16 18 0 20 -3 10 -9z m-584 -21 c18 -21 16 -30 -4 -23 -18 7 -43 28 -43 36
0 11 36 1 47 -13z m299 3 c-5 -15 -3 -14 9 2 14 17 17 18 25 5 5 -8 10 -23 10
-32 0 -29 17 -20 24 12 3 17 11 30 17 30 6 0 9 -6 6 -14 -3 -8 1 -17 10 -20 9
-4 13 -9 10 -13 -4 -3 -3 -11 3 -18 7 -8 0 -11 -26 -9 -19 2 -39 6 -44 9 -5 3
-12 1 -15 -5 -5 -8 -11 -7 -21 1 -11 9 -14 8 -14 -2 0 -9 -3 -10 -10 -3 -10
10 5 74 17 74 3 0 2 -8 -1 -17z m428 1 c6 -16 -20 -64 -35 -64 -5 0 -6 -7 -3
-15 4 -8 1 -15 -6 -15 -6 0 -8 5 -5 10 3 6 1 10 -4 10 -8 0 -8 6 -2 18 5 9 12
25 15 35 3 10 10 15 16 12 6 -3 7 1 4 9 -3 9 -2 16 4 16 5 0 13 -7 16 -16z
m2113 -21 c-3 -10 -5 -4 -5 12 0 17 2 24 5 18 2 -7 2 -21 0 -30z m-3722 17 c3
-5 1 -10 -4 -10 -6 0 -11 5 -11 10 0 6 2 10 4 10 3 0 8 -4 11 -10z m75 0 c0
-5 -4 -10 -10 -10 -5 0 -10 5 -10 10 0 6 5 10 10 10 6 0 10 -4 10 -10z m377 4
c-3 -3 -12 -4 -19 -1 -8 3 -5 6 6 6 11 1 17 -2 13 -5z m923 -14 c12 -8 12 -10
-5 -10 -14 0 -16 -3 -7 -8 15 -10 2 -55 -19 -68 -9 -5 -11 5 -7 39 3 26 2 44
-3 41 -5 -3 -9 0 -9 5 0 14 30 14 50 1z m60 0 c0 -5 -2 -10 -4 -10 -3 0 -8 5
-11 10 -3 6 -1 10 4 10 6 0 11 -4 11 -10z m290 0 c0 -5 -4 -10 -10 -10 -5 0
-10 5 -10 10 0 6 5 10 10 10 6 0 10 -4 10 -10z m50 0 c0 -5 -4 -10 -10 -10 -5
0 -10 5 -10 10 0 6 5 10 10 10 6 0 10 -4 10 -10z m37 -22 c-3 -7 -5 -2 -5 12
0 14 2 19 5 13 2 -7 2 -19 0 -25z m1730 0 c-3 -7 -5 -2 -5 12 0 14 2 19 5 13
2 -7 2 -19 0 -25z m-3030 16 c-3 -3 -12 -4 -19 -1 -8 3 -5 6 6 6 11 1 17 -2
13 -5z m1025 -26 c-8 -8 -9 -4 -5 13 4 13 8 18 11 10 2 -7 -1 -18 -6 -23z
m-92 2 c0 -4 -6 -13 -14 -19 -11 -9 -15 -9 -19 1 -2 7 -2 3 0 -9 2 -18 -1 -23
-17 -23 -24 0 -26 17 -5 47 14 20 55 22 55 3z m-1940 -5 c-15 -18 -40 -20 -40
-2 0 9 -2 9 -9 -1 -7 -11 -9 -11 -14 2 -5 13 1 16 35 16 35 0 39 -2 28 -15z
m87 0 c0 -9 -9 -15 -22 -15 -13 0 -28 7 -35 15 -11 13 -7 15 22 15 24 0 35 -5
35 -15z m69 0 l29 -15 -32 0 c-55 0 -36 -20 20 -21 33 -1 44 -3 30 -7 -23 -7
-20 -25 7 -35 13 -5 13 -6 -1 -6 -9 -1 -24 8 -34 19 -21 23 -41 26 -49 8 -5
-10 -7 -10 -12 0 -3 6 -12 12 -20 12 -9 0 -12 -4 -9 -10 3 -5 2 -10 -4 -10 -5
0 -13 5 -16 10 -3 6 -11 10 -16 10 -6 0 -7 -4 -4 -10 9 -14 -8 -13 -23 2 -9 9
-12 9 -12 0 0 -7 -7 -12 -15 -12 -12 0 -14 4 -5 20 9 16 19 19 66 16 54 -3 56
-2 51 20 -5 28 8 30 49 9z m1820 7 c17 -11 24 -52 9 -52 -7 0 -15 8 -19 18 -3
9 -9 23 -12 30 -6 13 5 16 22 4z m-1720 -21 c-3 -5 -15 -7 -26 -4 -28 7 -25
13 6 13 14 0 23 -4 20 -9z m1704 -17 c0 -8 -9 -14 -20 -14 -18 0 -19 3 -10 20
12 22 30 18 30 -6z m-172 -5 c-11 -7 -10 -11 2 -19 9 -6 11 -10 3 -10 -14 0
-35 34 -27 43 3 3 13 3 21 0 12 -5 12 -7 1 -14z m2305 14 c-7 -2 -19 -2 -25 0
-7 3 -2 5 12 5 14 0 19 -2 13 -5z m190 0 c-7 -2 -21 -2 -30 0 -10 3 -4 5 12 5
17 0 24 -2 18 -5z m-4363 -25 c0 -18 -2 -20 -9 -8 -6 8 -7 18 -5 22 9 14 14 9
14 -14z m60 12 c0 -5 -12 -10 -26 -10 -14 0 -23 4 -19 10 3 6 15 10 26 10 10
0 19 -4 19 -10z m1410 0 c0 -5 -5 -10 -11 -10 -5 0 -7 5 -4 10 3 6 8 10 11 10
2 0 4 -4 4 -10z m35 0 c3 -5 1 -10 -4 -10 -6 0 -11 5 -11 10 0 6 2 10 4 10 3
0 8 -4 11 -10z m-527 -18 c2 -7 -6 -12 -20 -11 -12 0 -17 3 -10 6 6 2 9 9 6
15 -4 6 -1 9 6 6 8 -2 16 -10 18 -16z m202 3 c0 -8 -6 -15 -13 -15 -8 0 -14 7
-14 15 0 8 6 15 14 15 7 0 13 -7 13 -15z m377 9 c-3 -3 -12 -4 -19 -1 -8 3 -5
6 6 6 11 1 17 -2 13 -5z m2529 -15 c1 -5 2 -13 3 -19 2 -20 21 -9 21 13 1 20
2 20 11 5 5 -10 14 -18 19 -18 6 0 10 8 11 18 0 10 3 12 6 4 2 -6 9 -10 14 -6
5 3 9 0 9 -5 0 -6 7 -11 15 -11 8 0 15 -4 15 -10 0 -15 30 -12 36 3 3 8 24 13
55 14 29 0 55 6 59 13 5 7 9 1 13 -17 3 -15 3 -31 0 -35 -5 -10 -90 -10 -211
-2 l-92 7 0 35 c0 30 13 39 16 11z m-3452 -10 c-27 -11 -54 -11 -54 0 0 11 39
19 59 12 11 -3 10 -6 -5 -12z m716 11 c0 -5 -4 -10 -10 -10 -5 0 -10 5 -10 10
0 6 5 10 10 10 6 0 10 -4 10 -10z m-610 -10 c0 -5 -4 -10 -10 -10 -5 0 -10 5
-10 10 0 6 5 10 10 10 6 0 10 -4 10 -10z m1055 0 c16 -7 13 -9 -17 -9 -20 -1
-40 4 -43 9 -7 12 32 12 60 0z m165 -11 c0 -5 -5 -7 -11 -3 -7 4 -10 1 -7 -7
4 -14 46 -17 393 -28 39 -2 53 -5 40 -10 -11 -4 -158 -3 -328 3 -286 8 -308 8
-320 -8 -16 -21 -72 -12 -63 10 4 11 -12 14 -79 16 -47 0 -103 2 -125 4 -22 1
-79 3 -126 3 -57 1 -83 4 -79 12 4 6 26 8 53 5 26 -3 119 -5 207 -5 88 0 169
0 180 -1 136 -9 235 -10 235 -1 0 6 -6 8 -14 5 -8 -3 -17 -1 -21 5 -4 7 7 11
29 11 20 0 36 -5 36 -11z m-733 -5 c-3 -3 -104 -7 -224 -9 -120 -2 -207 0
-193 5 29 9 426 13 417 4z m-1390 -10 c-3 -3 -12 -4 -19 -1 -8 3 -5 6 6 6 11
1 17 -2 13 -5z m103 -4 c0 -5 -2 -10 -4 -10 -3 0 -8 5 -11 10 -3 6 -1 10 4 10
6 0 11 -4 11 -10z m137 4 c-3 -3 -12 -4 -19 -1 -8 3 -5 6 6 6 11 1 17 -2 13
-5z m673 -3 c-14 -4 -106 -11 -205 -15 -326 -12 -429 -16 -530 -21 -252 -11
-500 -17 -495 -12 5 6 143 13 600 33 85 4 229 10 320 14 228 10 341 10 310 1z
m1895 -71 c12 -4 -14 -6 -60 -3 -44 3 -82 7 -84 9 -9 8 125 2 144 -6z m92 -6
c-3 -3 -12 -4 -19 -1 -8 3 -5 6 6 6 11 1 17 -2 13 -5z m83 -4 c0 -5 -5 -10
-11 -10 -5 0 -7 5 -4 10 3 6 8 10 11 10 2 0 4 -4 4 -10z m-1068 -115 c3 4 9
-3 13 -15 8 -25 2 -33 -25 -37 -18 -3 -20 3 -20 45 1 43 2 45 13 24 7 -12 16
-20 19 -17z m-25 -66 c24 -13 184 -15 523 -6 l85 2 1 -40 c1 -24 0 -29 -3 -12
-2 15 -11 27 -19 27 -11 0 -14 -18 -16 -82 l-2 -83 -3 80 -4 81 -34 -4 c-24
-3 -35 -10 -36 -21 -1 -14 -2 -13 -6 2 -7 28 -33 20 -34 -10 -2 -27 -2 -27 -6
-3 -4 24 -7 25 -63 24 -32 -1 -63 -5 -68 -8 -6 -3 -9 -23 -7 -44 4 -33 3 -34
-6 -12 -6 14 -8 33 -5 42 5 21 -4 23 -23 6 -11 -11 -12 -10 -6 1 5 9 4 12 -3
7 -15 -9 -16 -182 -2 -191 6 -3 10 1 10 10 0 9 4 14 9 10 5 -3 12 5 14 17 2
13 5 -15 5 -62 0 -47 -2 -79 -5 -72 -2 6 -9 10 -14 6 -5 -3 -9 5 -10 18 0 13
-3 17 -6 11 -13 -33 -21 -4 -25 95 -3 59 -11 118 -17 132 -10 21 -11 16 -6
-34 7 -70 -4 -164 -16 -144 -5 7 -9 23 -9 35 0 12 -4 23 -9 25 -5 2 -11 31
-14 66 -5 69 -17 96 -17 41 0 -19 -7 -52 -15 -74 l-14 -40 -1 75 c-1 97 -17
74 -29 -41 -5 -50 -9 -67 -10 -43 0 23 -4 62 -7 88 -6 40 -10 46 -30 46 -23 0
-24 -4 -25 -67 -1 -38 -1 -72 0 -76 1 -5 -3 -6 -9 -2 -5 3 -11 41 -12 83 l-1
77 -6 -60 c-5 -51 -9 -60 -25 -60 -16 0 -20 8 -22 49 -2 27 -6 51 -9 55 -4 3
-46 5 -94 3 -67 -2 -91 0 -100 12 -9 11 -9 16 1 22 16 10 18 11 98 13 39 1 73
8 84 16 27 20 19 24 -52 26 -59 2 -62 3 -62 27 0 20 3 22 14 13 11 -10 17 -7
30 11 11 15 16 17 16 8 0 -11 2 -12 8 -3 4 6 22 11 40 11 18 -1 36 2 40 6 4 5
8 -10 10 -32 2 -30 9 -42 29 -53z m235 73 c7 10 11 9 22 -5 11 -14 15 -15 19
-4 3 8 16 13 29 12 34 -2 33 -48 -2 -50 -14 -1 -28 3 -32 9 -5 8 -8 7 -8 -1 0
-16 -66 -18 -75 -2 -4 5 -4 21 -1 35 6 23 8 24 23 9 13 -13 18 -14 25 -3z
m-1379 -24 c4 -10 8 -9 16 2 9 13 11 13 11 -2 0 -10 4 -18 10 -18 5 0 14 8 19
18 9 15 12 15 21 2 14 -20 7 -46 -11 -41 -28 8 -54 8 -64 1 -36 -25 -45 -20
-45 26 0 41 2 44 19 34 11 -5 22 -15 24 -22z m1227 17 c1 19 1 19 11 2 14 -24
7 -40 -19 -42 -18 -1 -22 4 -22 29 0 28 1 29 15 10 14 -19 14 -19 15 1z m57
-32 c-3 -10 -5 -2 -5 17 0 19 2 27 5 18 2 -10 2 -26 0 -35z m-930 -15 c-2 -13
-4 -5 -4 17 -1 22 1 32 4 23 2 -10 2 -28 0 -40z m256 31 c3 -11 3 -28 0 -36
-5 -12 -9 -11 -18 8 -13 23 -10 49 5 49 4 0 10 -9 13 -21z m943 -6 c-4 -4 -12
-1 -19 7 -9 10 -9 11 1 6 7 -4 12 -2 13 6 0 11 2 11 6 0 3 -7 2 -16 -1 -19z
m-1339 -15 c-3 -7 -5 -2 -5 12 0 14 2 19 5 13 2 -7 2 -19 0 -25z m80 -5 c-3
-10 -5 -4 -5 12 0 17 2 24 5 18 2 -7 2 -21 0 -30z m-871 -10 c-11 -11 -19 6
-11 24 8 17 8 17 12 0 3 -10 2 -21 -1 -24z m41 15 c-3 -8 -6 -5 -6 6 -1 11 2
17 5 13 3 -3 4 -12 1 -19z m1350 0 c-3 -8 -6 -5 -6 6 -1 11 2 17 5 13 3 -3 4
-12 1 -19z m-495 -23 c-6 -34 -12 -32 -12 6 0 16 4 28 9 25 4 -3 6 -17 3 -31z
m358 13 c0 -16 -3 -19 -11 -11 -6 6 -8 16 -5 22 11 17 16 13 16 -11z m-1920
-35 c0 -5 -5 -15 -10 -23 -8 -12 -10 -11 -10 8 0 12 5 22 10 22 6 0 10 -3 10
-7z m33 0 c-7 -2 -13 -12 -13 -20 0 -9 -3 -14 -6 -10 -10 10 4 37 18 36 10 0
10 -2 1 -6z m32 -12 c-3 -6 -11 -11 -17 -11 -6 0 -6 6 2 15 14 17 26 13 15 -4z
m562 -7 c3 -9 2 -24 -4 -33 -11 -18 -63 -28 -63 -13 0 6 -34 9 -82 8 -46 -1
-92 2 -103 7 -10 6 -40 11 -65 11 -174 5 -176 6 -156 21 16 12 62 15 243 15
198 0 224 -2 230 -16z m514 5 c173 -2 213 -5 244 -19 l38 -18 -24 -13 c-13 -7
-28 -12 -33 -11 -4 2 -14 -3 -22 -9 -11 -9 -17 -9 -28 0 -11 10 -16 8 -24 -6
-10 -17 -11 -17 -29 0 -41 36 -76 2 -38 -37 20 -20 21 -118 1 -110 -8 3 -16
-2 -19 -13 -3 -10 -5 26 -6 79 l-1 96 -62 6 c-35 3 -94 4 -133 1 -112 -6 -119
-5 -126 6 -7 12 -19 12 -36 -3 -7 -5 -18 -6 -25 -2 -24 15 -42 17 -100 11 -39
-4 -64 12 -55 35 3 10 38 12 138 11 74 -2 227 -3 340 -4z m954 -29 c0 -36 -29
-33 -33 3 -3 23 0 28 15 25 12 -2 18 -12 18 -28z m-529 2 c9 -12 13 -12 26 2
16 16 90 21 113 7 19 -11 40 -10 47 2 4 7 8 -2 8 -21 0 -20 -4 -31 -10 -27 -6
4 -24 -1 -41 -9 -17 -9 -35 -13 -40 -10 -5 3 -8 -12 -8 -33 1 -23 3 -29 6 -15
9 44 23 21 23 -37 0 -73 -9 -123 -22 -115 -7 4 -8 -55 -4 -166 6 -170 6 -172
-16 -178 -20 -5 -20 -6 -3 -19 18 -12 18 -13 -3 -15 -57 -4 -56 -5 -60 42 -10
100 -3 330 8 285 4 -16 8 -22 9 -12 0 9 8 17 16 17 8 0 14 -8 13 -17 -4 -53 6
-59 12 -8 19 151 4 373 -16 240 -3 -25 -13 -52 -20 -60 -8 -7 -14 -19 -14 -25
0 -6 -4 -8 -10 -5 -5 3 -10 -1 -10 -9 0 -9 -4 -16 -10 -16 -5 0 -10 -7 -10
-16 0 -8 -4 -12 -10 -9 -5 3 -10 -3 -10 -15 0 -12 -4 -18 -10 -15 -11 7 -13
57 -4 92 4 13 10 20 15 17 5 -3 9 1 9 9 0 7 16 33 37 56 29 34 33 45 22 52 -8
5 -25 6 -39 2 -32 -8 -92 -5 -102 5 -5 5 -6 16 -3 24 8 20 95 20 111 0z m290
4 c20 -21 17 -33 -9 -40 -31 -7 -78 6 -69 20 8 12 43 33 55 34 5 0 15 -6 23
-14z m129 -3 c25 -14 20 -20 -27 -26 -34 -4 -38 -2 -38 18 0 25 29 28 65 8z
m65 -11 c0 -4 -9 -8 -20 -8 -11 0 -20 4 -20 8 0 4 9 8 20 8 11 0 20 -4 20 -8z
m997 -39 c-3 -10 -5 -2 -5 17 0 19 2 27 5 18 2 -10 2 -26 0 -35z m-1001 -30
c-10 -26 -18 -8 -9 23 5 21 8 24 11 11 2 -10 1 -25 -2 -34z m-175 -42 c25 -29
30 -41 27 -80 -3 -41 -6 -46 -25 -44 -17 2 -23 -4 -26 -25 -3 -15 -4 -6 -4 19
1 42 -9 80 -35 134 -24 53 -15 91 14 54 11 -13 33 -39 49 -58z m876 7 c-2 -13
-4 -3 -4 22 0 25 2 35 4 23 2 -13 2 -33 0 -45z m103 11 c0 -11 -4 -17 -10 -14
-5 3 -10 15 -10 26 0 11 5 17 10 14 6 -3 10 -15 10 -26z m-2020 -101 c0 -68
-4 -116 -8 -108 -8 15 -4 230 4 230 2 0 4 -55 4 -122z m173 92 c3 -11 1 -23
-4 -26 -5 -3 -9 6 -9 20 0 31 6 34 13 6z m-693 -6 c0 -8 -5 -12 -10 -9 -6 4
-8 11 -5 16 9 14 15 11 15 -7z m1722 -12 c-3 -17 -1 -23 7 -18 11 7 13 -7 13
-79 0 -47 -2 -53 -21 -58 -16 -4 -21 2 -26 25 -10 45 4 155 19 155 8 0 11 -9
8 -25z m1065 6 c-3 -8 -6 -5 -6 6 -1 11 2 17 5 13 3 -3 4 -12 1 -19z m-2822 2
c3 -5 2 -10 -4 -10 -5 0 -13 5 -16 10 -3 6 -2 10 4 10 5 0 13 -4 16 -10z
m1892 -72 c-2 -13 -4 -3 -4 22 0 25 2 35 4 23 2 -13 2 -33 0 -45z m683 -16 c0
-54 -3 -69 -15 -69 -8 0 -15 7 -15 15 0 11 -3 12 -13 3 -21 -16 -27 -3 -27 56
0 52 12 69 24 36 6 -14 9 -14 24 5 9 12 18 22 20 22 1 0 2 -31 2 -68z m97 1
c-2 -16 -4 -5 -4 22 0 28 2 40 4 28 2 -13 2 -35 0 -50z m-1320 -20 c-2 -16 -4
-5 -4 22 0 28 2 40 4 28 2 -13 2 -35 0 -50z m723 -9 c0 -53 -15 -78 -31 -53
-10 16 -12 90 -3 113 13 33 34 -4 34 -60z m-2018 14 c3 -27 1 -48 -4 -48 -4 0
-8 23 -8 52 0 62 6 60 12 -4z m659 -91 c-8 -8 -11 9 -11 54 0 85 14 99 18 18
2 -34 -2 -67 -7 -72z m-334 41 c-2 -18 -4 -6 -4 27 0 33 2 48 4 33 2 -15 2
-42 0 -60z m665 5 c-7 -23 -25 -14 -18 10 3 12 6 33 7 47 1 19 3 17 8 -10 4
-19 5 -41 3 -47z m112 45 c-1 -18 -3 -36 -3 -39 -1 -3 -16 -3 -33 -1 -32 5
-32 5 -10 15 12 6 22 17 21 26 -2 26 0 31 15 31 9 0 13 -10 10 -32z m1533 10
c-3 -8 -6 -5 -6 6 -1 11 2 17 5 13 3 -3 4 -12 1 -19z m-1153 -113 l-17 -40 -8
38 c-5 20 -5 54 0 75 l9 37 3 -55 c1 -40 3 -46 6 -20 2 19 7 46 10 60 6 22 8
20 11 -15 2 -23 -4 -58 -14 -80z m-653 80 c6 17 8 17 8 3 1 -10 6 -18 11 -18
6 0 10 -14 10 -30 0 -28 2 -30 20 -20 11 6 40 9 63 7 23 -3 50 0 59 4 14 8 18
3 24 -26 3 -19 10 -35 15 -35 6 0 7 -21 4 -47 -7 -56 -15 -69 -15 -25 0 31
-14 44 -22 20 -3 -9 -6 -9 -12 1 -5 8 0 14 15 18 22 6 22 7 3 14 -28 11 -74
11 -74 -1 0 -5 9 -10 20 -10 11 0 20 -4 20 -10 0 -5 -7 -7 -15 -4 -9 4 -15 0
-15 -10 0 -15 6 -17 50 -20 12 -1 16 -20 18 -99 2 -66 -1 -97 -8 -92 -5 3 -10
13 -10 21 0 8 -4 14 -10 14 -5 0 -10 -6 -10 -12 0 -8 -3 -9 -8 -3 -4 6 -20 11
-37 13 -16 2 -31 5 -32 6 -2 1 -5 42 -8 92 -4 49 -8 99 -11 112 -7 35 -24 26
-24 -13 0 -19 -4 -35 -10 -35 -5 0 -10 -6 -10 -14 0 -9 -7 -13 -20 -11 -16 3
-20 -2 -20 -23 0 -30 -19 -70 -20 -42 0 8 -5 44 -10 80 -5 36 -6 91 -3 122 5
52 7 56 24 47 16 -8 19 -6 20 18 1 22 3 23 7 8 l5 -20 8 20z m-770 -12 c0 -11
3 -13 6 -5 5 13 23 7 23 -9 0 -10 -53 -13 -63 -3 -6 7 13 33 26 34 4 0 7 -8 8
-17z m1976 -5 c-3 -8 -6 -5 -6 6 -1 11 2 17 5 13 3 -3 4 -12 1 -19z m-1837
-13 c0 -20 -38 -25 -67 -10 l-27 14 24 9 c30 11 70 4 70 -13z m760 5 c0 -5
-13 -10 -29 -10 -17 0 -33 5 -36 10 -4 6 8 10 29 10 20 0 36 -4 36 -10z m-493
-22 c-3 -8 -6 -5 -6 6 -1 11 2 17 5 13 3 -3 4 -12 1 -19z m2094 -128 c13 -161
9 -180 -31 -180 -30 0 -48 14 -31 25 7 3 7 15 1 29 -12 33 -24 189 -16 219 4
18 11 24 25 20 11 -3 21 2 25 13 3 9 9 15 11 12 3 -3 10 -65 16 -138z m-107
104 c13 -5 16 -23 16 -94 0 -98 -8 -152 -21 -144 -5 3 -12 -3 -16 -13 -12 -32
-21 23 -22 139 -1 76 3 108 12 111 6 3 13 6 14 6 1 1 8 -2 17 -5z m446 -24
c18 5 32 5 36 -1 6 -10 -2 -85 -12 -121 -9 -32 -42 16 -53 78 -11 57 -13 85
-4 52 3 -13 10 -15 33 -8z m99 -67 c1 -17 6 -35 11 -38 10 -6 11 -2 14 47 3
53 16 41 16 -15 0 -47 -3 -55 -16 -50 -13 5 -14 0 -9 -28 7 -36 -9 -94 -23
-85 -4 2 -9 24 -10 48 -3 70 -14 122 -26 131 -8 6 -8 10 2 14 6 2 12 13 12 22
0 10 3 21 7 25 10 9 21 -27 22 -71z m954 -131 c-3 -92 -7 -169 -9 -171 -2 -2
-7 -1 -11 3 -13 13 -9 313 4 339 3 4 9 5 14 2 5 -4 6 -75 2 -173z m-4000 126
c3 -7 6 -2 7 12 1 21 3 22 9 7 6 -17 8 -17 20 -3 19 22 28 20 35 -9 4 -14 11
-23 16 -20 5 3 11 -4 15 -14 4 -12 12 -18 21 -14 7 3 14 0 14 -7 0 -10 3 -10
15 0 8 7 15 9 15 4 0 -4 5 -3 12 4 7 7 17 8 30 1 14 -8 18 -22 18 -72 l0 -63
-37 -3 c-66 -5 -78 -7 -90 -14 -6 -4 -14 -1 -16 5 -4 10 -8 9 -16 -2 -10 -13
-14 -12 -31 9 l-20 23 0 -45 c0 -25 -5 -49 -11 -52 -7 -5 -8 5 -4 29 4 20 4
43 1 52 -6 15 -9 14 -25 -5 -10 -11 -21 -18 -25 -14 -8 8 -8 186 0 207 4 12
11 13 24 6 10 -5 21 -15 23 -22z m1183 -45 c6 -2 14 5 17 16 6 25 47 17 54
-11 3 -10 10 -18 15 -18 5 0 8 -21 6 -47 -2 -28 -8 -47 -14 -46 -12 2 -12 3
-20 -97 -8 -96 -14 -103 -14 -13 0 38 -3 73 -7 77 -5 4 -13 22 -20 39 -11 30
-12 27 -14 -43 -2 -62 -3 -66 -6 -25 -6 77 -23 80 -24 4 l-2 -64 -10 85 c-14
126 -14 155 1 153 7 -2 13 9 13 30 l2 32 6 -34 c3 -19 11 -36 17 -38z m-1298
-35 l-4 -33 -8 37 c-5 21 -5 50 0 65 l8 28 4 -32 c2 -18 2 -48 0 -65z m-33 62
c7 -23 -4 -90 -15 -90 -10 0 -21 75 -14 94 8 22 21 20 29 -4z m-292 -107 c4
-3 7 3 7 15 0 12 5 22 10 22 6 0 9 -51 8 -137 0 -76 -3 -123 -5 -106 -3 19
-12 37 -24 43 -17 10 -19 22 -18 128 1 80 4 105 9 79 4 -20 10 -40 13 -44z
m1997 -152 c-1 -184 -19 -227 -21 -51 -2 137 -2 156 1 215 l2 40 9 -30 c6 -16
10 -95 9 -174z m38 89 c-1 -107 -14 -92 -16 18 -1 67 1 90 8 75 5 -12 9 -54 8
-93z m-1961 28 c-2 -13 -4 -5 -4 17 -1 22 1 32 4 23 2 -10 2 -28 0 -40z m1133
10 c0 -10 5 -18 10 -18 15 0 12 -63 -5 -97 -12 -25 -20 -30 -38 -25 -30 7 -37
20 -36 67 1 50 12 84 23 67 11 -19 26 -4 26 26 0 21 2 24 10 12 5 -8 10 -23
10 -32z m-960 -28 c0 -33 -4 -60 -10 -60 -11 0 -14 78 -4 104 11 28 14 18 14
-44z m817 23 c-3 -10 -5 -4 -5 12 0 17 2 24 5 18 2 -7 2 -21 0 -30z m3214 25
c0 -7 2 -24 4 -38 7 -41 -5 -90 -20 -90 -8 0 -22 11 -31 25 -20 31 -11 102 14
108 29 8 32 7 33 -5z m264 -12 c7 3 24 -10 39 -28 27 -34 30 -33 51 7 3 7 7 7
10 0 18 -35 25 -40 34 -26 7 11 15 10 45 -4 38 -18 48 -30 18 -23 -15 4 -18 1
-14 -18 2 -14 0 -24 -7 -24 -6 0 -11 -9 -11 -20 0 -11 -7 -20 -15 -20 -8 0
-15 9 -15 20 0 11 -4 20 -10 20 -5 0 -10 -7 -10 -15 0 -17 -25 -20 -35 -5 -3
6 -21 -6 -39 -25 -50 -52 -93 -45 -102 16 -11 84 -8 131 11 145 12 9 23 10 28
5 5 -5 15 -7 22 -5z m665 -31 c0 -14 -4 -25 -10 -25 -8 0 -8 23 -1 48 4 12 11
-3 11 -23z m-43 -7 c-3 -8 -6 -5 -6 6 -1 11 2 17 5 13 3 -3 4 -12 1 -19z
m-1007 -95 c-10 -16 -11 -14 -6 7 3 14 7 41 8 60 1 32 2 32 5 -7 2 -24 -1 -51
-7 -60z m1168 68 c2 -12 1 -30 -3 -39 -5 -14 -7 -14 -15 -2 -15 23 -12 72 3
68 6 -3 13 -15 15 -27z m-4927 -44 c-8 -8 -11 -7 -11 4 0 20 13 34 18 19 3 -7
-1 -17 -7 -23z m99 15 c0 -10 -7 -19 -15 -19 -18 0 -19 4 -2 22 16 19 17 18
17 -3z m604 -9 c4 -8 3 -58 0 -109 -6 -79 -10 -94 -24 -94 -20 0 -39 39 -41
83 -2 31 -2 31 -8 -6 -3 -21 -10 -38 -16 -38 -13 0 -26 102 -15 116 4 5 10 19
13 30 5 19 5 19 12 -2 9 -28 25 -20 25 11 0 12 3 25 6 28 9 10 42 -3 48 -19z
m397 -74 l-9 -34 -1 40 c0 22 3 51 7 65 7 24 7 24 10 -6 2 -18 -1 -47 -7 -65z
m89 -10 c0 -31 -4 -48 -10 -44 -5 3 -10 29 -10 56 0 31 4 48 10 44 6 -3 10
-29 10 -56z m450 41 c0 -5 -5 -10 -11 -10 -5 0 -7 5 -4 10 3 6 8 10 11 10 2 0
4 -4 4 -10z m1777 -22 c-3 -7 -5 -2 -5 12 0 14 2 19 5 13 2 -7 2 -19 0 -25z
m-2577 -78 c0 -43 -4 -82 -10 -85 -6 -4 -10 27 -10 85 0 58 4 89 10 85 6 -3
10 -42 10 -85z m859 63 c2 28 21 19 27 -13 4 -16 10 -27 15 -24 5 3 9 -13 9
-35 0 -22 -4 -43 -10 -46 -5 -3 -10 -28 -10 -55 0 -54 -16 -75 -26 -34 -4 16
-9 22 -14 14 -16 -26 -27 147 -13 200 l7 25 7 -25 c4 -16 7 -19 8 -7z m961
-73 c0 -83 -8 -95 -54 -87 -20 3 -38 1 -41 -4 -4 -5 6 -9 22 -9 15 0 38 -3 51
-7 23 -6 23 -7 16 -92 -7 -91 -24 -122 -53 -98 -10 9 -17 6 -32 -12 l-19 -23
-10 27 c-12 31 -17 281 -6 292 4 4 16 2 26 -5 16 -10 20 -10 20 2 0 7 7 19 16
26 12 11 15 11 12 0 -2 -7 2 -14 8 -17 8 -2 15 15 19 48 10 69 25 45 25 -41z
m-1434 44 c-3 -9 -6 -20 -6 -25 0 -5 -4 -9 -10 -9 -11 0 -14 33 -3 43 12 13
25 7 19 -9z m1874 -65 c0 -42 -13 -51 -30 -20 -7 13 -7 28 0 46 14 36 30 22
30 -26z m-6 -85 c10 -26 9 -195 -2 -206 -13 -13 -18 7 -27 94 -9 94 9 164 29
112z"/>
<path d="M5215 4070 c-3 -5 -1 -10 4 -10 6 0 11 5 11 10 0 6 -2 10 -4 10 -3 0
-8 -4 -11 -10z"/>
<path d="M5250 2970 c0 -6 7 -10 15 -10 8 0 15 2 15 4 0 2 -7 6 -15 10 -8 3
-15 1 -15 -4z"/>
<path d="M5218 2923 c6 -2 18 -2 25 0 6 3 1 5 -13 5 -14 0 -19 -2 -12 -5z"/>
<path d="M5268 2923 c7 -3 16 -2 19 1 4 3 -2 6 -13 5 -11 0 -14 -3 -6 -6z"/>
<path d="M5330 2590 c-8 -5 -11 -12 -7 -16 4 -4 13 -2 19 4 15 15 7 24 -12 12z"/>
<path d="M2503 2528 c0 -69 2 -88 13 -88 8 0 14 -9 14 -20 0 -11 5 -20 11 -20
5 0 7 5 4 10 -4 6 6 10 23 10 32 0 34 6 49 102 5 34 3 37 -19 36 -12 -1 -29
-6 -37 -12 -12 -9 -13 -7 -8 7 5 14 2 16 -18 11 -20 -5 -24 -2 -27 23 -3 15
-5 -11 -5 -59z"/>
<path d="M2636 2451 c-4 -7 -5 -15 -2 -18 9 -9 19 4 14 18 -4 11 -6 11 -12 0z"/>
<path d="M2611 2434 c0 -11 3 -14 6 -6 3 7 2 16 -1 19 -3 4 -6 -2 -5 -13z"/>
<path d="M3106 2564 c-3 -8 -11 -14 -18 -13 -32 4 -52 -1 -42 -11 7 -7 24 -7
50 -1 21 5 32 10 24 10 -12 1 -13 3 -1 10 8 5 9 11 3 15 -5 3 -13 -1 -16 -10z"/>
<path d="M3513 2573 c-15 -5 -18 -43 -4 -43 5 0 11 11 13 25 3 14 5 25 4 24 0
0 -7 -3 -13 -6z"/>
<path d="M3508 2513 c7 -3 16 -2 19 1 4 3 -2 6 -13 5 -11 0 -14 -3 -6 -6z"/>
<path d="M3506 2411 c-4 -7 -5 -15 -2 -18 9 -9 19 4 14 18 -4 11 -6 11 -12 0z"/>
<path d="M3440 2360 c0 -16 4 -30 8 -30 5 0 7 14 4 30 -2 17 -6 30 -8 30 -2 0
-4 -13 -4 -30z"/>
<path d="M3500 2369 c0 -5 5 -7 10 -4 6 3 10 8 10 11 0 2 -4 4 -10 4 -5 0 -10
-5 -10 -11z"/>
<path d="M6160 2531 c-13 -13 -12 -14 4 -8 10 4 22 7 27 7 5 0 9 4 9 8 0 14
-25 10 -40 -7z"/>
<path d="M5980 2528 c0 -4 7 -8 15 -8 8 0 15 4 15 8 0 5 -7 9 -15 9 -8 0 -15
-4 -15 -9z"/>
<path d="M6075 2500 c-3 -5 1 -10 9 -10 9 0 16 5 16 10 0 6 -4 10 -9 10 -6 0
-13 -4 -16 -10z"/>
<path d="M6175 2478 c7 -36 22 -42 21 -9 -1 17 -6 31 -13 31 -7 0 -10 -9 -8
-22z"/>
<path d="M5990 2470 c-6 -11 -7 -20 -2 -20 6 0 12 9 15 20 3 11 3 20 1 20 -2
0 -8 -9 -14 -20z"/>
<path d="M3028 2483 c7 -3 16 -2 19 1 4 3 -2 6 -13 5 -11 0 -14 -3 -6 -6z"/>
<path d="M3060 2475 c0 -8 5 -15 10 -15 6 0 10 7 10 15 0 8 -4 15 -10 15 -5 0
-10 -7 -10 -15z"/>
<path d="M3115 2481 c3 -5 -3 -12 -12 -14 -17 -4 -17 -5 0 -6 10 0 17 -7 15
-13 -6 -16 -30 -17 -41 -3 -6 7 -10 6 -14 -2 -2 -7 -13 -13 -24 -13 -20 0 -26
-15 -10 -24 5 -4 12 0 14 6 4 8 6 7 6 -4 1 -9 -3 -20 -9 -23 -15 -9 -12 -35 4
-35 9 0 12 -8 8 -25 -6 -32 11 -32 33 1 11 17 14 35 10 55 -5 22 -3 29 8 29 8
0 18 7 21 16 10 25 7 64 -5 64 -5 0 -8 -4 -4 -9z"/>
<path d="M2908 2373 c6 -2 18 -2 25 0 6 3 1 5 -13 5 -14 0 -19 -2 -12 -5z"/>
<path d="M3260 2342 c0 -11 35 -29 47 -25 22 9 14 21 -17 25 -16 3 -30 2 -30
0z"/>
<path d="M2918 2329 c-8 -5 15 -9 55 -9 39 0 67 4 67 10 0 12 -102 11 -122 -1z"/>
<path d="M3260 2290 c0 -5 5 -10 10 -10 6 0 10 5 10 10 0 6 -4 10 -10 10 -5 0
-10 -4 -10 -10z"/>
<path d="M3290 2285 c0 -8 7 -15 15 -15 8 0 15 4 15 9 0 5 -7 11 -15 15 -9 3
-15 0 -15 -9z"/>
<path d="M2918 2283 c7 -3 16 -2 19 1 4 3 -2 6 -13 5 -11 0 -14 -3 -6 -6z"/>
<path d="M2978 2283 c12 -2 32 -2 45 0 12 2 2 4 -23 4 -25 0 -35 -2 -22 -4z"/>
<path d="M2960 2251 c0 -6 -15 -12 -32 -14 -18 -2 1 -4 42 -5 41 0 69 2 62 5
-6 2 -10 9 -6 14 3 5 -11 9 -30 9 -20 0 -36 -4 -36 -9z"/>
<path d="M3265 2240 c3 -5 8 -10 11 -10 2 0 4 5 4 10 0 6 -5 10 -11 10 -5 0
-7 -4 -4 -10z"/>
<path d="M2865 2230 c-4 -6 -11 -7 -17 -4 -6 4 -8 2 -4 -4 9 -15 46 -11 46 5
0 15 -16 17 -25 3z"/>
<path d="M2900 2119 c-17 -5 -3 -7 43 -8 39 -1 67 3 67 9 0 11 -71 11 -110 -1z"/>
<path d="M2978 2093 c6 -2 18 -2 25 0 6 3 1 5 -13 5 -14 0 -19 -2 -12 -5z"/>
<path d="M2890 2070 c-11 -7 -4 -10 28 -10 23 0 42 5 42 10 0 13 -50 13 -70 0z"/>
<path d="M2919 1991 c11 -7 7 -10 -15 -14 -23 -3 -20 -4 13 -6 34 -1 41 2 37
14 -4 8 -16 15 -28 15 -16 0 -18 -2 -7 -9z"/>
<path d="M2893 1883 c9 -2 25 -2 35 0 9 3 1 5 -18 5 -19 0 -27 -2 -17 -5z"/>
<path d="M2900 1790 c-19 -6 -11 -8 33 -9 31 -1 57 2 57 7 0 10 -60 11 -90 2z"/>
<path d="M1360 2350 c-6 -11 -8 -20 -6 -20 3 0 10 9 16 20 6 11 8 20 6 20 -3
0 -10 -9 -16 -20z"/>
<path d="M1467 2369 c7 -7 15 -10 18 -7 3 3 -2 9 -12 12 -14 6 -15 5 -6 -5z"/>
<path d="M1420 2341 c0 -5 9 -7 20 -4 11 3 20 7 20 9 0 2 -9 4 -20 4 -11 0
-20 -4 -20 -9z"/>
<path d="M1418 2303 c7 -3 16 -2 19 1 4 3 -2 6 -13 5 -11 0 -14 -3 -6 -6z"/>
<path d="M1435 2170 c-3 -5 -1 -10 4 -10 6 0 11 5 11 10 0 6 -2 10 -4 10 -3 0
-8 -4 -11 -10z"/>
<path d="M1395 2159 c-9 -14 0 -22 18 -17 13 2 13 5 2 15 -10 9 -16 9 -20 2z"/>
<path d="M1938 2373 c7 -3 16 -2 19 1 4 3 -2 6 -13 5 -11 0 -14 -3 -6 -6z"/>
<path d="M2013 2333 c9 -2 23 -2 30 0 6 3 -1 5 -18 5 -16 0 -22 -2 -12 -5z"/>
<path d="M1988 2283 c6 -2 18 -2 25 0 6 3 1 5 -13 5 -14 0 -19 -2 -12 -5z"/>
<path d="M2030 2260 c0 -5 5 -10 10 -10 6 0 10 5 10 10 0 6 -4 10 -10 10 -5 0
-10 -4 -10 -10z"/>
<path d="M1988 2253 c7 -3 16 -2 19 1 4 3 -2 6 -13 5 -11 0 -14 -3 -6 -6z"/>
<path d="M5280 2340 c0 -5 5 -10 10 -10 6 0 10 5 10 10 0 6 -4 10 -10 10 -5 0
-10 -4 -10 -10z"/>
<path d="M5303 2303 c9 -2 14 -9 11 -15 -5 -7 -2 -8 6 -3 7 4 16 2 21 -6 6
-10 9 -10 9 -2 0 14 -32 34 -52 32 -7 -1 -5 -3 5 -6z"/>
<path d="M5850 2065 c0 -8 5 -15 10 -15 6 0 10 7 10 15 0 8 -4 15 -10 15 -5 0
-10 -7 -10 -15z"/>
<path d="M5850 2024 c0 -8 5 -12 10 -9 6 3 10 10 10 16 0 5 -4 9 -10 9 -5 0
-10 -7 -10 -16z"/>
<path d="M5831 2014 c0 -11 3 -14 6 -6 3 7 2 16 -1 19 -3 4 -6 -2 -5 -13z"/>
<path d="M5830 1964 c-15 -39 -13 -44 23 -43 20 1 24 3 11 6 -16 3 -20 10 -16
33 5 37 -5 39 -18 4z"/>
<path d="M5225 1960 c3 -5 8 -10 11 -10 2 0 4 5 4 10 0 6 -5 10 -11 10 -5 0
-7 -4 -4 -10z"/>
<path d="M4318 1913 c6 -2 18 -2 25 0 6 3 1 5 -13 5 -14 0 -19 -2 -12 -5z"/>
<path d="M4394 1783 c10 -11 66 -13 66 -2 0 5 -16 9 -37 9 -20 0 -33 -3 -29
-7z"/>
<path d="M2875 1710 c-3 -6 1 -7 9 -4 18 7 21 14 7 14 -6 0 -13 -4 -16 -10z"/>
<path d="M3918 1613 c6 -2 18 -2 25 0 6 3 1 5 -13 5 -14 0 -19 -2 -12 -5z"/>
<path d="M4095 1610 c-3 -5 1 -10 9 -10 9 0 16 5 16 10 0 6 -4 10 -9 10 -6 0
-13 -4 -16 -10z"/>
</g>
</svg>
